<?xml version="1.0" encoding="UTF-8"?>
<svg width="39px" height="50px" viewBox="0 0 39 50" version="1.1" xmlns="http://www.w3.org/2000/svg" xmlns:xlink="http://www.w3.org/1999/xlink">
    <title>Black</title>
    <defs>
        <polygon id="path-1" points="1.77635684e-15 -8.8817842e-16 20 -8.8817842e-16 20 21 1.77635684e-15 21"></polygon>
        <polygon id="path-3" points="0 0 7 0 7 2 0 2"></polygon>
        <path d="M6.2151758,1.97802401 C1.87509994,1.8779321 0.986976053,1.7273765 0.542024773,1.47672899 C0.28573218,1.34355162 0.114870109,1.15907505 0.0294392444,0.975433982 C-0.0212855705,0.82487838 -0.0043771451,0.624694572 0.0641455331,0.490681705 C0.11487028,0.357504331 0.235006749,0.206948729 0.371163044,0.12339956 C0.50820782,0.0398503912 0.695978025,0.00676492044 0.849931277,0.00676492044 C1.00388453,0.0233076558 1.19165474,0.0903140891 1.29399408,0.206948729 C1.43103885,0.357504331 1.56719515,0.67515827 1.53337819,0.875342078 C1.49956124,1.07552589 1.2770856,1.34355162 1.10622387,1.44364352 C0.969179095,1.52719269 0.764500413,1.52719269 0.610547161,1.49327173 C0.474390866,1.46018626 0.303529137,1.37663709 0.200301315,1.26000245 C0.0979618031,1.14253232 0.0125309386,0.958891247 0.0125309386,0.808335645 C-0.00437726471,0.657780043 0.0294394153,0.47413897 0.132668092,0.340961595 C0.251915226,0.190405993 0.491299343,0.0563931266 0.764500413,0.00676492044 C1.26017712,-0.0602415128 2.11449431,0.390589801 2.93408385,0.47413897 C3.942356,0.591609101 5.80491971,0.323583368 6.40293576,0.508059933 C6.64233013,0.574230874 6.74465922,0.67515827 6.84700539,0.808335645 C6.94933448,0.942348511 7.00095181,1.15907505 6.98405359,1.32617339 C6.94933448,1.49327173 6.84700539,1.69429103 6.72776099,1.79438293 C6.5907128,1.91101757 6.2151758,1.97802401 6.2151758,1.97802401 Z" id="path-5"></path>
        <polygon id="path-7" points="0 0 4 0 4 3 0 3"></polygon>
        <path d="M3.0880484,2.95569631 C0.0616447841,1.11756575 0.0322366393,1.00198494 0.00358143571,0.85276829 C-0.0107534059,0.703535075 0.0179017977,0.505148138 0.0902999877,0.372310538 C0.148377816,0.256729735 0.278839354,0.123892135 0.39422759,0.0574816151 C0.524689128,0.00831133258 0.68382035,-0.0253245192 0.814281888,0.0247069472 C0.97341311,0.0911174669 1.19060768,0.322279071 1.26300587,0.48789134 C1.32106922,0.637124555 1.32106922,0.819115877 1.27809365,0.968349092 C1.23435067,1.11756575 1.14761763,1.26679896 1.03147646,1.3496051 C0.886680078,1.44879028 0.597087318,1.49882175 0.423635734,1.44879028 C0.293174196,1.39875882 0.177033019,1.28317801 0.104634829,1.15034041 C0.0322366393,1.01838056 -0.0107534059,0.836372675 0.00358143571,0.687156021 C0.0179017977,0.537922806 0.0616447841,0.355931484 0.162698178,0.256729735 C0.293174196,0.123892135 0.481713562,-0.0089454658 0.741883698,0.00831133258 C1.3648122,0.0574816151 3.49301492,1.38237976 3.85500587,1.79641043 C3.95682668,1.92924804 3.97114705,1.99565856 3.98548189,2.12763497 C3.99980225,2.27685163 3.98548189,2.49249536 3.9130837,2.64085083 C3.84068551,2.79008405 3.69588913,2.92292165 3.55109275,2.97207537 C3.42061673,3.02210683 3.0880484,2.95569631 3.0880484,2.95569631 Z" id="path-9"></path>
        <polygon id="path-11" points="0 1.77635684e-15 6 1.77635684e-15 6 4 0 4"></polygon>
        <path d="M0.388718332,2.55693393 C5.42359838,-0.0370889397 5.61267667,0.0465892174 5.75487995,0.180825717 C5.91270823,0.330760239 6.00724737,0.648904592 5.97599737,0.850250974 C5.94474737,1.0507271 5.73925495,1.31832985 5.58142667,1.41857628 C5.45484838,1.50225444 5.2813951,1.50225444 5.13919182,1.46911789 C4.99777768,1.43599807 4.83994939,1.35231992 4.74462111,1.23465169 C4.63445697,1.06729538 4.53991783,0.749151024 4.58679283,0.54865816 C4.65008197,0.348182031 4.85557439,0.0971475599 5.04465268,0.0300376779 C5.2345201,-0.0370889397 5.55017667,0.0134694028 5.70800495,0.130267374 C5.86583323,0.247082082 5.97599737,0.565226435 5.99162237,0.766572816 C5.99162237,0.933929131 5.92833323,1.06729538 5.81816909,1.21808342 C5.66034081,1.43599807 5.37593424,1.60335439 4.98136353,1.87095713 C4.12972212,2.38957762 1.58805545,3.84524284 0.862203181,3.96291106 C0.625460756,4.01259915 0.499671615,3.9794626 0.373093332,3.89578444 C0.230890049,3.81210629 0.0886867666,3.64474997 0.0418117666,3.49396193 C-0.0214773749,3.32660562 -0.00585237486,3.10956121 0.0418117666,2.95877318 C0.105100908,2.79141686 0.388718332,2.55693393 0.388718332,2.55693393 Z" id="path-13"></path>
        <polygon id="path-15" points="-3.55271368e-15 0 6 0 6 2 -3.55271368e-15 2"></polygon>
        <path d="M0.777171863,0.265838702 C4.19016928,0.209897237 4.88677045,-0.0862961499 5.30507945,0.0246605973 C5.58337161,0.0989404899 5.79200366,0.302515557 5.89736459,0.487752197 C5.98443974,0.636311982 6.01874734,0.839887049 5.96615395,1.00678526 C5.91460547,1.21036033 5.68768764,1.50655372 5.49629647,1.61751046 C5.35662793,1.69179036 5.16523676,1.71012878 5.00832735,1.6551135 C4.81693618,1.58083361 4.53846986,1.32131708 4.45139472,1.13608044 C4.38156045,0.969182224 4.39880133,0.765607157 4.45139472,0.598708944 C4.50416226,0.431810732 4.5912374,0.265838702 4.74710191,0.173220382 C4.9212522,0.061337452 5.26955279,0.00632216996 5.47922974,0.061337452 C5.63613915,0.117278917 5.77476278,0.265838702 5.86183793,0.395133877 C5.94891308,0.543693662 6.00168061,0.747268729 5.98443974,0.914166942 C5.94891308,1.13608044 5.79200366,1.4139354 5.58337161,1.58083361 C5.32214618,1.76607025 4.95677886,1.8027471 4.48587648,1.877027 C3.61512502,1.98798374 1.45653215,2.04392521 0.777171863,1.93296846 C0.515946425,1.877027 0.39334462,1.84035014 0.254720988,1.71012878 C0.132119183,1.59917204 0.0278031578,1.37725854 0.010562279,1.1920219 C-0.0237453285,1.00678526 0.0278031578,0.765607157 0.132119183,0.617047371 C0.271787717,0.451075342 0.777171863,0.265838702 0.777171863,0.265838702 Z" id="path-17"></path>
        <polygon id="path-19" points="-3.55271368e-15 0 5 0 5 2 -3.55271368e-15 2"></polygon>
        <path d="M0.718681483,0 C3.44139863,0.373830527 4.41532217,0.681502272 4.73996334,0.908446939 C4.87931623,1.01563753 4.94133677,1.12215985 4.97196037,1.2425822 C5.00335731,1.34977279 4.9880455,1.5098904 4.92602496,1.61708099 C4.87931623,1.72360331 4.75604847,1.84402566 4.63200739,1.89762096 C4.50796631,1.96444801 4.33798982,2.00481155 4.19863694,1.97767976 C4.01334864,1.9379845 3.75072801,1.79043037 3.67339566,1.64354451 C3.57997819,1.48342689 3.61137512,1.21611868 3.68870747,1.08246458 C3.75072801,0.962042235 3.88930757,0.868751671 4.02866045,0.828388132 C4.19863694,0.774792836 4.50796631,0.801924619 4.67871613,0.868751671 C4.80198388,0.935578722 4.89462803,1.0553328 4.94133677,1.17575515 C5.00335731,1.28294574 5.00335731,1.44306335 4.95664857,1.5634857 C4.91071316,1.67067629 4.80198388,1.80433039 4.69402793,1.87115744 C4.58529866,1.9379845 4.4620309,1.97767976 4.26065748,1.97767976 C3.87399576,1.96444801 3.08536052,1.53702219 2.43607817,1.38946806 C1.77071068,1.2425822 0.703369679,1.30940925 0.332019766,1.12215985 C0.162043275,1.02886929 0.0693991274,0.908446939 0.022690392,0.788024592 C-0.0232450201,0.668270516 0.00737858795,0.481021117 0.0540873234,0.36059877 C0.100022735,0.267308206 0.162043275,0.186581128 0.254687422,0.133654103 C0.378728501,0.0668270516 0.718681483,0 0.718681483,0 Z" id="path-21"></path>
        <polygon id="path-23" points="1.41381844e-16 0 6 0 6 3 1.41381844e-16 3"></polygon>
        <path d="M5.3534274,1.56249255 C1.50154607,2.30910831 1.48497524,2.2042836 1.43771416,2.22233288 C1.35812326,2.23951442 1.35812326,2.56943459 1.26277336,2.69057308 C1.16660845,2.81171157 1.02400861,2.91653629 0.880579434,2.95089935 C0.73715026,2.98526242 0.562215823,2.96808089 0.418785058,2.898487 C0.259603252,2.79453004 0.0523358067,2.53420376 0.0050795041,2.30910831 C-0.0272550961,2.10032664 0.100423038,1.77040647 0.228099581,1.61490491 C0.323443115,1.49289866 0.482624921,1.42330477 0.626054095,1.40612324 C0.7852359,1.3889417 0.960170337,1.42330477 1.08701754,1.51008019 C1.19894305,1.59685562 1.32579343,1.7360434 1.37388226,1.89241272 C1.43771416,2.03073275 1.45347316,2.22233288 1.40538434,2.37783445 C1.34236426,2.56943459 1.13510477,2.8469424 0.944417706,2.91653629 C0.768653932,2.98526242 0.450290321,2.93371782 0.291108515,2.81171157 C0.131926709,2.67339155 -0.0272550961,2.39588374 0.0050795041,2.15273899 C0.0523358067,1.78845576 0.482624921,1.24975392 0.991674008,0.920701507 C1.86717076,0.381999667 4.49367055,-0.0166466361 5.20998867,0.000534898128 C5.44876138,0.0177164323 5.56068211,0.0529472549 5.68753409,0.13972268 C5.83097281,0.24367964 5.95863662,0.434412024 5.97439562,0.607962875 C6.0058977,0.798695259 5.9263068,1.14579696 5.81521381,1.30216628 C5.70329309,1.44135406 5.3534274,1.56249255 5.3534274,1.56249255 Z" id="path-25"></path>
        <polygon id="path-27" points="0 4.4408921e-16 3 4.4408921e-16 3 5 0 5"></polygon>
        <path d="M1.77350346,4.56037439 C-0.00736427251,0.504465247 0.0477307533,0.394784104 0.117312751,0.285898543 C0.201381721,0.1762174 0.326058744,0.0673474387 0.451445504,0.0364757302 C0.604386735,-0.0106508142 0.897201698,0.0519037846 1.02187872,0.160789346 C1.13350216,0.254215653 1.21684748,0.394784104 1.23062471,0.535336956 C1.25888892,0.72220517 1.18930692,1.03419818 1.09146072,1.17476663 C1.00810149,1.29987583 0.868937491,1.36244603 0.743550731,1.39331774 C0.618873707,1.42418945 0.451445504,1.39331774 0.340545716,1.33076314 C0.228936192,1.26819294 0.117312751,1.14387932 0.0622177252,1.00332647 C0.00641296305,0.878201676 -0.0218512444,0.706777115 0.0201901986,0.566208664 C0.0622177252,0.394784104 0.242699511,0.145345692 0.381863506,0.0519037846 C0.507264183,-0.0106508142 0.660191497,-0.0106508142 0.785592174,0.0202208943 C0.910978934,0.0673474387 0.994338167,0.114473983 1.11972493,0.270470489 C1.43937071,0.644206917 2.06560869,1.93930551 2.38597812,2.64128978 C2.62226467,3.15640584 2.87305211,3.67071072 2.9426341,4.02981468 C2.98466163,4.23212655 2.99843887,4.372695 2.95639742,4.5286915 C2.90059266,4.66924436 2.78969287,4.84068452 2.66430611,4.90323911 C2.51136488,4.98123737 2.23303689,4.99668102 2.08009566,4.91868277 C1.94093166,4.85611257 1.77350346,4.56037439 1.77350346,4.56037439 Z" id="path-29"></path>
        <polygon id="path-31" points="0 0 2 0 2 5 0 5"></polygon>
        <path d="M0,4.21237394 C0.0592563524,1.18472905 0.117531639,0.639806521 0.313744727,0.367787577 C0.431276366,0.197665157 0.569214167,0.112604117 0.746002158,0.044377881 C0.902383989,-0.00612734858 1.13842833,-0.00612729754 1.31423526,0.0275429065 C1.47159816,0.0789339976 1.66781124,0.197665157 1.76591779,0.317283334 C1.88344943,0.436013472 1.96213087,0.622971207 1.94270578,0.776258312 C1.92328068,0.980051362 1.7270676,1.28662557 1.5502796,1.40535741 C1.39291671,1.50814027 1.17727852,1.55864452 1.00049053,1.52497389 C0.765427254,1.50814027 0.41185127,1.33801785 0.294319631,1.15017378 C0.176787992,0.963216047 0.157362896,0.622971207 0.25546944,0.436013472 C0.373001079,0.249055737 0.706170902,0.0620991932 0.921809085,0.010707762 C1.11802217,-0.0229621019 1.33464142,0.0275429065 1.49102325,0.0957691421 C1.64838615,0.180829842 1.76591779,0.249055737 1.86402433,0.452848787 C2.11949377,1.03144194 1.92328068,3.54961102 1.76591779,4.21237394 C1.70666143,4.46755757 1.66781124,4.60401276 1.5502796,4.7227412 C1.4123418,4.84235427 1.17727852,4.96109972 0.981065437,4.97792483 C0.78485235,4.99565159 0.52938291,4.96109972 0.373001079,4.84235427 C0.196213087,4.7227412 0,4.21237394 0,4.21237394 Z" id="path-33"></path>
        <polygon id="path-35" points="0 0 4 0 4 2 0 2"></polygon>
        <path d="M0.266213444,1.25190274 C2.63527588,1.4069045 3.49518911,-0.0255981346 3.78207837,0.00290309391 C3.88817156,0.00290309391 3.99351018,0.171102462 3.9785696,0.241302532 C3.96362903,0.311502603 3.78207837,0.438003129 3.70662091,0.409501901 C3.63116345,0.395602287 3.54076541,0.157202848 3.57064657,0.087002778 C3.6012823,0.0307023217 3.7671378,-0.0116985207 3.82765468,0.00290309391 C3.90311214,0.0307023217 3.9785696,0.12870162 3.9785696,0.213503305 C3.99351018,0.395602287 3.72156149,0.704903796 3.51088426,0.943303234 C3.20905442,1.26650436 2.65021646,1.77180446 2.27292916,1.92610422 C2.0316162,2.02410352 1.85082012,1.99630429 1.56393086,1.98240467 C1.17170297,1.94000383 0.325975753,1.8135033 0.115298522,1.64530394 C0.0241459092,1.57510387 -0.0206758226,1.44860334 0.00920533191,1.39230288 C0.039841061,1.32210281 0.266213444,1.25190274 0.266213444,1.25190274 Z" id="path-37"></path>
        <polygon id="path-39" points="0 0 4 0 4 4 0 4"></polygon>
        <path d="M0.1684339,2.85380822 C3.21977268,-0.0443003848 3.34136853,-0.0141142957 3.47883134,0.0168649599 C3.61629415,0.0470663022 3.75375696,0.154311574 3.84514456,0.260763679 C3.92142803,0.367215784 3.98260737,0.535641653 3.98260737,0.672279847 C3.98260737,0.809726461 3.93653215,0.97734391 3.86024868,1.08458918 C3.76886109,1.20614196 3.63139828,1.31338723 3.49393546,1.34358857 C3.3262644,1.37456783 3.00602639,1.31338723 2.86856358,1.20614196 C2.7462049,1.12987594 2.6548173,0.97734391 2.63971317,0.840705716 C2.60950492,0.657194429 2.66992143,0.352130366 2.79228011,0.214683752 C2.92974292,0.0780455578 3.21977268,-0.0141142957 3.40254787,0.00177954197 C3.55511481,0.0168649599 3.69257762,0.108231647 3.79906934,0.199598334 C3.89045694,0.306843605 3.96674041,0.459375637 3.98260737,0.596013831 C3.9977115,0.733460445 3.9977115,0.840705716 3.89045694,1.02342384 C3.58532306,1.60336588 1.54153635,3.69273439 0.931268594,3.95171853 C0.73262644,4.02798455 0.580059501,3.98269778 0.442596689,3.95171853 C0.336104966,3.92153244 0.24471737,3.84526642 0.1684339,3.76900041 C0.092150431,3.64665447 0,3.46393634 0,3.31140431 C0,3.15887228 0.1684339,2.85380822 0.1684339,2.85380822 Z" id="path-41"></path>
    </defs>
    <g id="Page-1" stroke="none" stroke-width="1" fill="none" fill-rule="evenodd">
        <g id="Black">
            <path d="M5.93304075,36.5011399 C6.05051193,37.0048962 6.01341733,37.4547014 5.82175695,37.8511941 C5.63165455,38.2486444 5.31943672,38.524625 4.88511831,38.6792954 C4.39671597,38.8638145 3.81014649,38.9702801 3.12622593,38.9985326 C2.81709438,39.011781 2.54198599,38.9353236 2.30087109,38.7690011 C2.06129636,38.6028381 1.86886738,38.4347597 1.72280814,38.2636485 C1.56592914,38.0732235 1.46932738,37.8677944 1.43223278,37.6483188 C1.39668429,37.4288432 1.42914206,37.2310758 1.52806149,37.053101 C1.68416743,36.75637 1.94382963,36.6076055 2.30704363,36.6076055 C2.40596751,36.6076055 2.50489139,36.619098 2.60380043,36.6408062 C2.64243816,36.6540545 2.68494857,36.6665048 2.73054526,36.6773588 C2.77768507,36.689011 2.82096705,36.7006631 2.86037636,36.7139115 C3.03734727,36.7696184 3.21740446,36.8154289 3.40133432,36.8502258 C3.58680732,36.8859803 3.78155397,36.872732 3.98557427,36.8103211 L4.31325312,36.7040151 L4.26378376,36.5876532 C4.17723464,36.3681776 4.05436249,36.2076013 3.89593888,36.1054454 C3.7390584,36.0015336 3.57521897,35.9207666 3.40443543,35.8626655 C2.72590101,35.6431899 2.11307448,35.2366413 1.56515609,34.6422216 C1.16329693,34.2032704 0.975506265,33.7111663 1.00255416,33.1657495 C1.02882901,32.6270367 1.25680649,32.1706871 1.68571354,31.795743 C2.50179028,31.0733091 3.426069,30.8429795 4.45853041,31.1039559 C4.91989821,31.2171255 5.26302325,31.4690037 5.48790556,31.8589519 C5.57213997,32.0209648 5.62160933,32.1981415 5.63628395,32.3909608 C5.63628395,32.4466676 5.62855344,32.5098766 5.61465038,32.580428 C5.60229046,32.6519372 5.57291154,32.7052498 5.52810126,32.7400466 C5.44772468,32.8050114 5.32485253,32.8016594 5.16024154,32.7301503 C4.96240862,32.643637 4.72206529,32.5638277 4.43998311,32.4907224 C4.15714421,32.4158613 3.8572863,32.4166593 3.54043907,32.4940744 C3.38974597,32.5298289 3.24368227,32.5829819 3.10149125,32.653693 C2.95930023,32.7252021 2.82946913,32.7999036 2.71199796,32.8797129 C2.57366477,32.96463 2.50489139,33.074288 2.50489139,33.2090061 C2.50489139,33.3419684 2.5705785,33.455138 2.70272431,33.5481957 L2.91910453,33.6845099 C3.09607544,33.7975199 3.2753759,33.9097318 3.45697622,34.0203475 C3.63781981,34.1292074 3.82483595,34.2265747 4.01649633,34.313088 C5.06904817,34.7652875 5.70815845,35.4952234 5.93304075,36.5011399 Z" id="Path" fill="#000000" fill-rule="nonzero"></path>
            <path d="M9.55121921,34.2116839 C9.86661042,34.2663505 10.1392977,34.3897313 10.3692652,34.5818262 C10.5992484,34.7722286 10.7700801,35.0103586 10.8817759,35.2941852 C10.9951275,35.578858 11.0271555,35.8899332 10.9770556,36.2284264 C10.9285957,36.635803 10.8292159,37.0138999 10.6780962,37.3639019 C10.5286166,37.7120422 10.3175252,38.0285333 10.044018,38.3123599 C9.59721902,38.7777881 9.05514038,39.006948 8.41778205,38.9998396 C8.2009506,38.9487271 7.98165909,38.9030305 7.76072755,38.8624114 C7.53896022,38.8200997 7.32460458,38.7618789 7.11679332,38.6860564 C6.70284235,38.5291648 6.40142298,38.2771566 6.21333943,37.931555 C6.02443586,37.5859535 5.96118416,37.1804386 6.02278006,36.7150104 C6.09916781,36.164959 6.27247528,35.6854833 6.54186668,35.2764143 C6.81125808,34.8675145 7.16690898,34.5210667 7.60959208,34.2363939 C7.98577495,33.994879 8.39150997,33.9383506 8.82517288,34.0671473 C8.94508462,34.1050585 9.06663639,34.1358614 9.18984396,34.1587097 C9.31221575,34.1798655 9.43294751,34.1974672 9.55121921,34.2116839 Z M9.24568398,36.3871797 C9.33110769,36.1174007 9.26869177,35.9033037 9.05842045,35.7453966 C8.86130094,35.5956134 8.71018124,35.5003275 8.60504558,35.4598776 C8.49992569,35.4175659 8.40546603,35.4368601 8.32251814,35.5162367 C8.23873446,35.5937517 8.13031874,35.737442 7.99727096,35.9464616 C7.955387,36.0151757 7.92006319,36.0715348 7.8921353,36.1157082 C7.68843988,36.4990518 7.62438393,36.7679846 7.7015917,36.9231837 C7.7804395,37.0765212 8.02190301,37.1646987 8.42763803,37.1875469 C8.63790935,37.1946553 8.79970504,37.1408349 8.91387666,37.0254087 C9.02968831,36.9081208 9.14056409,36.6957163 9.24568398,36.3871797 Z" id="Shape" fill="#000000" fill-rule="nonzero"></path>
            <path d="M13.7005786,33.1148594 C13.7545388,33.7801468 13.8094279,34.4439097 13.864317,35.106148 C13.9210637,35.7691487 13.965718,36.4321493 13.9982799,37.0943877 C14.0057103,37.3102555 13.9889739,37.5310016 13.9498925,37.7549491 C13.9099001,37.9772198 13.8587263,38.1964414 13.7973355,38.4124616 C13.73966,38.6092733 13.6298819,38.7569963 13.4661435,38.8538014 C13.3042806,38.9515212 13.1330939,39 12.9526191,39 C12.7609807,38.9935971 12.5925983,38.9364288 12.446543,38.8284949 C12.2995589,38.7204086 12.1944248,38.5679596 12.1302298,38.3711479 C12.0902374,38.2504083 12.0604619,38.1281443 12.0409212,38.0026787 C12.0204695,37.8779755 12.0074305,37.7509855 12,37.6215563 C12,37.5072195 12.0009288,37.3008036 12.0037152,37.0023085 C12.0083771,36.703661 12.0167364,36.3606507 12.0297576,35.9732779 C12.0418679,35.5842281 12.0558179,35.1870985 12.0706967,34.782194 C12.087451,34.3756125 12.106045,33.9993684 12.1265146,33.6514798 C12.1460553,33.3022192 12.1674536,33.0290306 12.1897808,32.8320666 C12.1990867,32.7431888 12.2158232,32.6535488 12.2381503,32.5622319 C12.2623351,32.4716772 12.3023453,32.3954527 12.3572344,32.3335584 C12.4288599,32.2596206 12.5190973,32.1858353 12.6288754,32.1111353 C12.7405112,32.03735 12.8446986,32 12.9414555,32 C13.0428565,32.0064029 13.1535634,32.0460396 13.2726475,32.1175382 C13.3917137,32.1873598 13.4745207,32.2635843 13.5219614,32.3462116 C13.5861564,32.4605484 13.6298819,32.5860139 13.6522091,32.7209312 C13.6763938,32.8567633 13.6931302,32.987717 13.7005786,33.1148594 Z" id="Path" fill="#000000" fill-rule="nonzero"></path>
            <path d="M18.486565,34.7873901 C18.7733823,35.0412142 18.9399654,35.3172701 18.9854594,35.6155576 C19.0326637,35.9123728 18.9649358,36.186073 18.7822758,36.4375415 C18.5987607,36.6891571 18.3138248,36.8731944 17.927126,36.9896531 C17.6153384,37.0816717 17.2910656,37.1461584 16.9544787,37.1829658 C16.6168656,37.2181537 16.2703589,37.2649728 15.9139325,37.324012 C16.0208262,37.3508078 16.122418,37.3792231 16.2204181,37.4098469 C16.3201286,37.4389984 16.4181288,37.4590217 16.5161289,37.4712417 C16.7129844,37.5042212 16.9125764,37.5288086 17.1147338,37.5448566 C17.316036,37.5617881 17.5120363,37.5962398 17.7027347,37.6490953 C17.9751855,37.7274216 18.1409135,37.8593394 18.1980375,38.044849 C18.2549905,38.2312419 18.1800793,38.4121873 17.9734752,38.5876852 C17.8682917,38.6858874 17.7355725,38.7733419 17.5744623,38.8484291 C17.4148913,38.9243997 17.259083,38.9681269 17.1077215,38.980347 C16.4111165,39.0401223 15.8231156,38.9635628 15.3438896,38.7503741 C14.8664424,38.5379215 14.5136931,38.2365421 14.2856418,37.8454998 C14.0576075,37.452838 13.96585,37.0142405 14.0112926,36.5295601 C14.0415649,36.2290641 14.1021437,35.940641 14.193012,35.6645851 C14.2856418,35.387057 14.4299569,35.1201294 14.6277017,34.8640968 C14.8771318,34.5312103 15.1987023,34.2904896 15.5932513,34.1432598 C15.9896987,33.99603 16.4145371,33.9623144 16.8689637,34.0419657 C17.5147728,34.140168 18.0536882,34.3886919 18.486565,34.7873901 Z M17.4853557,35.7259799 C17.4995512,35.7259799 17.515628,35.722152 17.5352964,35.7137599 C17.5539387,35.7037482 17.5789091,35.6915282 17.6100365,35.6769524 C17.4648321,35.5013073 17.2840534,35.3763092 17.0683846,35.3026943 C16.8520318,35.2276071 16.6488482,35.212148 16.459176,35.2566114 C16.2854095,35.3019582 16.1571371,35.3786649 16.0743586,35.4867315 C15.9905539,35.5956816 15.9255625,35.7245076 15.8783582,35.8732097 C16.1607287,35.84715 16.4342056,35.8225627 16.6979338,35.7995948 C16.9633723,35.7773631 17.2260743,35.7527758 17.4853557,35.7259799 Z" id="Shape" fill="#000000" fill-rule="nonzero"></path>
            <path d="M22,34.9378179 C22,35.0618044 22,35.2434859 22,35.4818705 C22,35.7212471 21.9969678,35.9761632 21.9917119,36.2464537 C21.9884776,36.5177361 21.9842325,36.763064 21.9789766,36.9835946 C21.9759444,37.2039598 21.9747315,37.3580337 21.9747315,37.4449895 C21.9664434,37.5552548 21.954921,37.6655201 21.9411749,37.7756201 C21.9264181,37.8858854 21.9074162,37.9961507 21.8821477,38.1062507 C21.8168539,38.4008425 21.6905114,38.6263326 21.5031202,38.7848699 C21.3147182,38.9414235 21.0998349,39.0121784 20.8588744,38.9982919 C20.6144775,38.9827523 20.4018177,38.8906717 20.2229167,38.7228767 C20.0460372,38.5532632 19.9744768,38.3259547 20.0080334,38.0409511 C20.0638262,37.4967332 20.1448876,36.9559869 20.2524304,36.4187122 C20.3587602,35.8797844 20.4713567,35.3372197 20.589209,34.7931671 C20.6249892,34.6466977 20.7125193,34.5296545 20.8503842,34.4418721 C20.9904728,34.3549162 21.1631072,34.3213572 21.3682874,34.3420216 C21.5758935,34.3583879 21.7305367,34.4236874 21.8316107,34.5382509 C21.9349083,34.6509959 21.9917119,34.7845707 22,34.9378179 Z M20.993505,33.3947651 C20.7766002,33.3879871 20.5944648,33.3173975 20.4460882,33.181343 C20.299733,33.0461151 20.2271619,32.8834449 20.2271619,32.6921751 C20.2271619,32.5018972 20.3070103,32.339227 20.4671116,32.2031725 C20.6292343,32.0679446 20.8271372,32 21.0610224,32 C21.2819702,32 21.4715851,32.0646383 21.6294627,32.1929229 C21.7863295,32.3193891 21.8611243,32.4787531 21.8526341,32.6715107 C21.8526341,32.8695584 21.7653061,33.0418169 21.591661,33.188121 C21.416803,33.3354169 21.2178893,33.4043533 20.993505,33.3947651 Z" id="Shape" fill="#000000" fill-rule="nonzero"></path>
            <path d="M23.7004906,33.1148594 C23.7546133,33.7801468 23.8094506,34.4439097 23.8642878,35.106148 C23.9210899,35.7691487 23.9657457,36.4321493 23.9982551,37.0943877 C24.0057572,37.3102555 23.9889667,37.5310016 23.9498482,37.7549491 C23.9098367,37.9772198 23.8587505,38.1964414 23.7973042,38.4124616 C23.739609,38.6092733 23.6299345,38.7569963 23.4661373,38.8538014 C23.3043049,38.9515212 23.1330054,39 22.9525963,39 C22.7609338,38.9935971 22.5924924,38.9364288 22.4465574,38.8284949 C22.2995507,38.7204086 22.1943418,38.5679596 22.1302161,38.3711479 C22.0902046,38.2504083 22.0603746,38.1281443 22.0409047,38.0026787 C22.020363,37.8779755 22.0073235,37.7509855 22,37.6215563 C22,37.5072195 22.0008931,37.3008036 22.0035725,37.0023085 C22.0082167,36.703661 22.0166119,36.3606507 22.0296514,35.9732779 C22.0417978,35.5842281 22.0557304,35.1870985 22.0705561,34.782194 C22.0873466,34.3756125 22.1059234,33.9993684 22.1264651,33.6514798 C22.145935,33.3022192 22.1673697,33.0290306 22.1896976,32.8320666 C22.198986,32.7431888 22.2157765,32.6535488 22.2381044,32.5622319 C22.2622185,32.4716772 22.30223,32.3954527 22.3572459,32.3335584 C22.4288737,32.2596206 22.5190783,32.1858353 22.6287528,32.1111353 C22.7403922,32.03735 22.844708,32 22.941343,32 C23.0428008,32.0064029 23.1535471,32.0460396 23.2726886,32.1175382 C23.3916515,32.1873598 23.4745325,32.2635843 23.5218676,32.3462116 C23.5861719,32.4605484 23.6299345,32.5860139 23.6522624,32.7209312 C23.6763765,32.8567633 23.693167,32.987717 23.7004906,33.1148594 Z" id="Path" fill="#000000" fill-rule="nonzero"></path>
            <path d="M32.9841228,31.8790831 C32.9908292,32.8758645 32.9949808,33.8766751 32.9973759,34.88167 C33.0016872,35.8849603 33.0007291,36.8890254 32.9941824,37.8938653 C32.9941824,38.2707578 32.8793753,38.5298713 32.6515174,38.6719809 C32.4252564,38.8123857 32.1276201,38.8236987 31.759886,38.7074695 C31.7043187,38.6865483 31.6369354,38.6832939 31.5570973,38.6978612 C31.478856,38.7107239 31.412271,38.7285457 31.3575021,38.749467 C31.0954736,38.8591873 30.8284951,38.9351237 30.5557683,38.9754165 C30.2828818,39.0166391 30.0077599,39.006101 29.7307218,38.9431823 C29.3265815,38.8551581 28.9839166,38.6840687 28.7028866,38.4297593 C28.4234534,38.1739001 28.2246566,37.8631808 28.1072946,37.4968265 C27.9918488,37.1287674 27.9693345,36.7275443 28.0408694,36.2925372 C28.0691321,36.1011465 28.1157575,35.9083611 28.180586,35.7146458 C28.4351097,34.9720189 28.8226437,34.4771925 29.3415911,34.2293919 C29.8621352,33.9825212 30.5057897,33.9856206 31.2709577,34.2391552 C31.3059267,34.2544974 31.3450474,34.2673601 31.3873616,34.2778982 C31.4314322,34.2867317 31.4814108,34.2988195 31.5371378,34.3133869 C31.5654004,33.8937221 31.5936631,33.4796363 31.6201694,33.0703546 C31.6485917,32.6620028 31.6776528,32.253496 31.7067138,31.8466939 C31.7134202,31.7716873 31.7167734,31.6934263 31.7167734,31.6109811 C31.7167734,31.5271411 31.7383297,31.4584884 31.7831987,31.4044031 C31.8381273,31.3140543 31.9104606,31.2260301 31.9994002,31.1397105 C32.087701,31.0541659 32.1740858,31.0073643 32.2588739,31.0008554 C32.3586714,30.9943466 32.4627803,31.0250311 32.5716794,31.0912042 C32.6823349,31.1558277 32.7728713,31.2292845 32.8444062,31.3107999 C32.9018896,31.3737186 32.9392538,31.4584884 32.9574569,31.5658842 C32.9750213,31.6715752 32.9841228,31.7757166 32.9841228,31.8790831 Z M31.2808576,36.9737952 C31.3092799,36.9672863 31.3341894,36.9438855 31.3541489,36.9026629 C31.3757052,36.8623701 31.3915132,36.8244019 31.4006147,36.7896882 C31.4073211,36.6306867 31.3575021,36.4701354 31.2509982,36.3086544 C31.1444942,36.1471733 31.0081308,36.0140521 30.8417483,35.9083611 C30.6755254,35.8009653 30.5099413,35.7501344 30.3461136,35.7564883 C30.3037994,35.7629971 30.2504676,35.7791142 30.1864374,35.8049946 C30.1241638,35.8291703 30.0850431,35.8550506 30.0700336,35.8824807 C30.0143066,36.0462864 29.9577812,36.2085423 29.9004575,36.3700234 C29.8447305,36.5313495 29.8056099,36.6985645 29.7838939,36.8704287 C29.7706408,36.9954913 29.8089631,37.0923489 29.9004575,37.1610016 C29.9935487,37.2304292 30.110751,37.2674676 30.2530224,37.2739764 C30.4210017,37.2246952 30.5923342,37.1763439 30.7652634,37.1287674 C30.9399491,37.0819658 31.1120799,37.0302051 31.2808576,36.9737952 Z" id="Shape" fill="#000000" fill-rule="nonzero"></path>
            <path d="M38.4865675,34.7873901 C38.7733833,35.0412142 38.9399657,35.3172701 38.9854595,35.6155576 C39.0326635,35.9123728 38.964936,36.186073 38.7822769,36.4375415 C38.5987626,36.6891571 38.3138281,36.8731944 37.9271312,36.9896531 C37.6153451,37.0816717 37.2910738,37.1461584 36.9544885,37.1829658 C36.616877,37.2181537 36.270372,37.2649728 35.9139472,37.324012 C36.0208405,37.3508078 36.1224318,37.3792231 36.2204315,37.4098469 C36.3201414,37.4389984 36.4181411,37.4590217 36.5161408,37.4712417 C36.7129954,37.5042212 36.9125864,37.5288086 37.1147428,37.5448566 C37.3160441,37.5617881 37.5120435,37.5962398 37.702741,37.6490953 C37.9751904,37.7274216 38.1409176,37.8593394 38.1980413,38.044849 C38.254994,38.2312419 38.1800833,38.4121873 37.9734801,38.5876852 C37.8682972,38.6858874 37.7355786,38.7733419 37.5744691,38.8484291 C37.4148989,38.9243997 37.2590914,38.9681269 37.1077306,38.980347 C36.4111289,39.0401223 35.8231308,38.9635628 35.3439071,38.7503741 C34.8663938,38.5379215 34.5137317,38.2365421 34.2857499,37.8454998 C34.057597,37.452838 33.9659254,37.0142405 34.0112481,36.5295601 C34.0415203,36.2290641 34.1022356,35.940641 34.1930521,35.6645851 C34.2857499,35.387057 34.4299275,35.1201294 34.6278082,34.8640968 C34.8771686,34.5312103 35.1987034,34.2904896 35.5932676,34.1432598 C35.9897132,33.99603 36.4145495,33.9623144 36.8689739,34.0419657 C37.5147799,34.140168 38.0536927,34.3886919 38.4865675,34.7873901 Z M37.4853629,35.7259799 C37.4995584,35.7259799 37.5156351,35.722152 37.5353034,35.7137599 C37.5539456,35.7037482 37.5789159,35.6915282 37.6100432,35.6769524 C37.4648394,35.5013073 37.2840616,35.3763092 37.0683939,35.3026943 C36.852042,35.2276071 36.6488594,35.212148 36.4591881,35.2566114 C36.2854225,35.3019582 36.1571507,35.3786649 36.0743726,35.4867315 C35.9905683,35.5956816 35.9255772,35.7245076 35.8783732,35.8732097 C36.1607423,35.84715 36.4342179,35.8225627 36.6979448,35.7995948 C36.963382,35.7773631 37.2260828,35.7527758 37.4853629,35.7259799 Z" id="Shape" fill="#000000" fill-rule="nonzero"></path>
            <path d="M7.95357895,43.5602946 C8.04848199,44.175532 7.99787209,44.7489962 7.80173408,45.2798515 C7.60561126,45.8090359 7.29243123,46.2563446 6.86219399,46.6201067 C6.43197194,46.9821978 5.9131636,47.218969 5.30578415,47.3302531 C5.17055111,47.3606641 5.02187981,47.3746999 4.85973986,47.3720265 C4.69920947,47.367682 4.5378743,47.3616667 4.37573436,47.3546488 C4.29507437,47.3459599 4.21282001,47.3397775 4.12898646,47.3372711 C4.0443785,47.3329266 3.96133454,47.3302531 3.87908018,47.3302531 L3.76835491,47.3302531 L3.78101877,47.6191574 C3.78733551,47.7541688 3.79366745,47.9142441 3.79999938,48.0995506 C3.80631612,48.2858596 3.80948968,48.4372461 3.80948968,48.5557152 L3.80948968,48.6531306 C3.80315775,48.780957 3.79445704,48.9072795 3.78417714,49.0325995 C3.77310765,49.1579194 3.74779511,49.2727125 3.70825471,49.3771458 C3.62759472,49.6000482 3.52557016,49.7549437 3.40140661,49.8401613 C3.27645347,49.9237079 3.16414901,49.9741701 3.06291404,49.9898769 C2.92768101,50.0107635 2.80193828,49.9994012 2.68646026,49.9551215 C2.57257661,49.9115101 2.48875825,49.8558681 2.43655398,49.7880282 L2.4049247,49.7671415 C2.2973578,49.6931192 2.23252004,49.5878504 2.21194506,49.4503327 C2.19296445,49.3136504 2.18664771,49.1560814 2.19296445,48.9767903 C2.19929638,48.8655062 2.20562831,48.754055 2.21194506,48.6426038 C2.21985618,48.5313196 2.22776729,48.4163595 2.23409923,48.2980574 C2.2467479,48.0848464 2.25781739,47.8654529 2.26888688,47.6400441 C2.27918197,47.4129643 2.28470912,47.1840465 2.28470912,46.9542933 C2.28470912,46.5601202 2.26888688,46.1632737 2.2372576,45.7637536 C2.2072075,45.3625627 2.17557822,44.9657161 2.14235456,44.573214 C2.10835649,44.209452 2.07750162,43.8421809 2.05060989,43.473239 C2.02294376,43.102459 2.00633193,42.7308435 2,42.3592281 C2,42.2618127 2.00078959,42.1677392 2.00315837,42.0773417 C2.00712152,41.9851062 2.01661183,41.8928707 2.03162928,41.8023062 C2.08383355,41.5055485 2.22539851,41.3167331 2.45553459,41.2348574 C2.51643956,41.2209887 2.57732935,41.2139707 2.63900874,41.2139707 C2.80509665,41.2139707 2.95931029,41.2888285 3.10087526,41.4367061 C3.12143505,41.4507419 3.145958,41.4846618 3.17363932,41.5377975 C3.19261992,41.565535 3.20923175,41.5916015 3.22424921,41.6143262 L3.29383971,41.7152506 L3.37609407,41.6490816 C3.84587171,41.2853196 4.38522466,41.072944 4.99260412,41.0121221 C5.51774439,40.9685107 5.98671725,41.042533 6.40034266,41.2348574 C6.81554725,41.4280172 7.15798779,41.7212659 7.42845386,42.1156061 C7.69814552,42.5081082 7.87291896,42.9893368 7.95357895,43.5602946 Z M5.72019915,44.9388141 C6.13777252,44.5027007 6.25877769,44.0179631 6.08398907,43.4835987 C6.00332908,43.2451566 5.87204401,43.0815723 5.68856986,42.9928458 C5.54067296,42.9258414 5.36589953,42.9074611 5.16342959,42.9372037 C4.96097483,42.9676147 4.76958957,43.0371255 4.59085298,43.1460703 C4.41369558,43.25301 4.2816361,43.3878543 4.19541858,43.5497677 C3.89806079,44.0771141 3.7493743,44.7107318 3.7493743,45.4504537 L3.7493743,45.561905 L3.85060927,45.5722647 C3.93049485,45.5722647 4.00403332,45.5722647 4.07204463,45.5722647 C4.77195835,45.5722647 5.32160638,45.3617272 5.72019915,44.9388141 Z" id="Shape" fill="#000000" fill-rule="nonzero"></path>
            <path d="M12.5512258,45.2116839 C12.8666174,45.2663505 13.1392892,45.3897313 13.3692728,45.5818262 C13.5992405,45.7722286 13.7700724,46.0103586 13.8817841,46.2941852 C13.9951201,46.578858 14.0271638,46.8899332 13.9770481,47.2284264 C13.928604,47.635803 13.8292083,48.0138999 13.6780884,48.3639019 C13.5286086,48.7120422 13.3175328,49.0285333 13.0440252,49.3123599 C12.5972099,49.7777881 12.0551306,50.006948 11.4177873,49.9998396 C11.2009556,49.9487271 10.9816638,49.9030305 10.7607163,49.8624114 C10.5389645,49.8200997 10.3245928,49.7618789 10.116797,49.6860564 C9.70284559,49.5291648 9.40141009,49.2771566 9.21332631,48.931555 C9.02442252,48.5859535 8.96118651,48.1804386 9.02278249,47.7150104 C9.09917033,47.164959 9.27246224,46.6854833 9.54185396,46.2764143 C9.81126145,45.8675145 10.166897,45.5210667 10.6095964,45.2363939 C10.9857639,44.994879 11.3914994,44.9383506 11.8251629,45.0671473 C11.9450748,45.1050585 12.0666424,45.1358614 12.1898344,45.1587097 C12.3122221,45.1798655 12.432954,45.1974672 12.5512258,45.2116839 Z M12.2456902,47.3871797 C12.3310983,47.1174007 12.2686823,46.9033037 12.0584265,46.7453966 C11.8613067,46.5956134 11.7101711,46.5003275 11.6050511,46.4598776 C11.4999153,46.4175659 11.4054713,46.4368601 11.3225075,46.5162367 C11.2387395,46.5937517 11.1303237,46.737442 10.99726,46.9464616 C10.955376,47.0151757 10.9200521,47.0715348 10.8921242,47.1157082 C10.6884443,47.4990518 10.6243725,47.7679846 10.7015804,47.9231837 C10.7804282,48.0765212 11.0219078,48.1646987 11.4276433,48.1875469 C11.6378991,48.1946553 11.7997108,48.1408349 11.9138668,48.0254087 C12.0296785,47.9081208 12.1405545,47.6957163 12.2456902,47.3871797 Z" id="Shape" fill="#000000" fill-rule="nonzero"></path>
            <path d="M22.9748745,48.1426213 C22.988432,48.2863071 22.9960178,48.4317689 22.9984388,48.5798137 C23.0026351,48.7260827 22.9984388,48.8707372 22.9850427,49.0136158 C22.9556681,49.2423831 22.8781968,49.4341795 22.7529514,49.5888435 C22.6294815,49.7418932 22.4780895,49.8326251 22.2990984,49.8612009 C22.0679756,49.9041452 21.8662273,49.879767 21.6938535,49.7872592 C21.5232552,49.6931369 21.3988168,49.5534871 21.3205385,49.366857 C21.2264431,49.1314705 21.1541365,48.8851058 21.1053941,48.6269556 C21.0558447,48.3670295 21.0053269,48.1080721 20.9541636,47.8499219 C20.9246276,47.735619 20.9078422,47.6179258 20.9036458,47.4968422 C20.9010634,47.3757587 20.8936391,47.257904 20.8800816,47.1436011 C20.8574858,47.1352059 20.8247219,47.1268108 20.7825968,47.1200301 C20.6253945,47.3286168 20.4901425,47.5464058 20.3757108,47.7725899 C20.2614406,47.9971596 20.1925234,48.245946 20.1705732,48.5192719 C20.1639558,48.618399 20.1605664,48.7202707 20.1605664,48.8253712 C20.1605664,48.9286959 20.1521737,49.0305675 20.1370022,49.1314705 C20.100849,49.4030206 19.9965854,49.6182265 19.8243731,49.7772496 C19.6536133,49.9344968 19.451058,50.0084385 19.2157388,49.9992361 C18.9778372,49.9924555 18.7760889,49.9015621 18.6104939,49.7267174 C18.4465129,49.5518727 18.3616172,49.3247199 18.3548385,49.0439674 C18.3548385,48.8447446 18.3633926,48.6453603 18.381792,48.4453302 C18.3993845,48.2435243 18.4053562,48.0417183 18.3985775,47.8399124 C18.3985775,47.624545 18.3901848,47.414344 18.3750133,47.2075332 C18.3616172,46.9989466 18.3516105,46.7905214 18.3448317,46.5819347 C18.3154572,46.575154 18.2885036,46.5675661 18.2641324,46.5583638 C18.2389542,46.5473855 18.2120007,46.537376 18.1834331,46.5281736 C18.0977304,46.6356958 18.005249,46.7425723 17.9043748,46.8476728 C17.8035007,46.9509975 17.7278047,47.0628787 17.6790623,47.1839623 C17.555431,47.4580955 17.4437431,47.7322287 17.342869,48.0079764 C17.2436088,48.2838855 17.1443486,48.5578572 17.0434745,48.8287616 C17.0140999,48.9077081 16.9881148,48.9884304 16.9661645,49.0709287 C16.9459897,49.1540728 16.9174222,49.2347952 16.8820759,49.3130959 C16.695499,49.757069 16.3844838,49.9680773 15.947384,49.9453136 C15.7540446,49.9386944 15.5808639,49.8747622 15.4261956,49.7536786 C15.2732058,49.6325951 15.164762,49.46776 15.1000412,49.2591733 C15.0706182,49.1810341 15.0445523,49.0995044 15.022699,49.0136158 C15.0025241,48.9262742 14.9957938,48.8437759 15.0025241,48.7648294 C15.1252517,47.7624189 15.2622791,46.7491915 15.412751,45.7241787 C15.4194652,45.6368371 15.4404955,45.5509484 15.4766326,45.4652213 C15.5119467,45.3803013 15.5623837,45.3121716 15.6279439,45.260025 C15.7061254,45.1978687 15.8002692,45.1357125 15.9103915,45.0751707 C16.0221923,45.012853 16.1205486,44.9892821 16.2062836,45.0044579 C16.3004436,45.0178578 16.3894872,45.0700045 16.4753513,45.159122 C16.560247,45.2492082 16.6315852,45.3365498 16.6904957,45.4214697 C16.7392381,45.493797 16.769581,45.5762953 16.7812017,45.6704176 C16.7921768,45.7629254 16.8081553,45.8554333 16.8283301,45.9495556 C17.2090695,45.6855934 17.5226671,45.4871778 17.7697684,45.3543087 C18.0160627,45.2196638 18.2305615,45.1549244 18.412135,45.159122 C18.5953224,45.1642882 18.7802853,45.2398444 18.9668621,45.3878892 C19.1526319,45.5341582 19.3711657,45.7495255 19.6226248,46.0336683 C19.6713672,45.9715121 19.7167202,45.905804 19.7570698,45.838643 C19.7974195,45.7697061 19.8453549,45.7099715 19.901683,45.660408 C20.1655698,45.403065 20.4480174,45.2416203 20.7490259,45.1760737 C21.0516483,45.1113343 21.3441027,45.1441076 21.6265503,45.2735863 C21.9089979,45.4012891 22.1544853,45.6232757 22.3630123,45.939546 C22.5849354,46.2690548 22.7295486,46.6222959 22.7966904,46.9989466 C22.8656077,47.3739828 22.9253252,47.7549924 22.9748745,48.1426213 Z" id="Path" fill="#000000" fill-rule="nonzero"></path>
            <path d="M30.9748744,48.1426213 C30.988432,48.2863071 30.9960177,48.4317689 30.9984387,48.5798137 C31.0026351,48.7260827 30.9984387,48.8707372 30.9850426,49.0136158 C30.9556679,49.2423831 30.8781961,49.4341795 30.7529501,49.5888435 C30.6294794,49.7418932 30.4780867,49.8326251 30.2990946,49.8612009 C30.0679704,49.9041452 29.866221,49.879767 29.6938463,49.7872592 C29.523247,49.6931369 29.398808,49.5534871 29.3205292,49.366857 C29.2264333,49.1314705 29.1541263,48.8851058 29.1053836,48.6269556 C29.055834,48.3670295 29.0053159,48.1080721 28.9541523,47.8499219 C28.9246162,47.735619 28.9078306,47.6179258 28.9036342,47.4968422 C28.9010518,47.3757587 28.8936275,47.257904 28.8800699,47.1436011 C28.857474,47.1352059 28.8245485,47.1268108 28.7825846,47.1200301 C28.6253814,47.3286168 28.4901286,47.5464058 28.3756964,47.7725899 C28.2614255,47.9971596 28.1925079,48.245946 28.1705576,48.5192719 C28.1639402,48.618399 28.1605508,48.7202707 28.1605508,48.8253712 C28.1605508,48.9286959 28.152158,49.0305675 28.1369865,49.1314705 C28.100833,49.4030206 27.9965689,49.6182265 27.8243556,49.7772496 C27.6535949,49.9344968 27.4510384,50.0084385 27.2157179,49.9992361 C26.977815,49.9924555 26.7760656,49.9015621 26.6104697,49.7267174 C26.4464878,49.5518727 26.3615916,49.3247199 26.3548128,49.0439674 C26.3548128,48.8447446 26.3632056,48.6453603 26.3817666,48.4453302 C26.3993591,48.2435243 26.4053309,48.0417183 26.3985521,47.8399124 C26.3985521,47.624545 26.3901593,47.414344 26.3749878,47.2075332 C26.3615916,46.9989466 26.3515848,46.7905214 26.3448061,46.5819347 C26.3154313,46.575154 26.2884776,46.5675661 26.2641063,46.5583638 C26.238928,46.5473855 26.2119742,46.537376 26.1834065,46.5281736 C26.0977034,46.6356958 26.0052214,46.7425723 25.9043467,46.8476728 C25.803472,46.9509975 25.7277757,47.0628787 25.679033,47.1839623 C25.555401,47.4580955 25.4437125,47.7322287 25.3428378,48.0079764 C25.2435771,48.2838855 25.1443163,48.5578572 25.0434416,48.8287616 C25.0140669,48.9077081 24.9880816,48.9884304 24.9661313,49.0709287 C24.9459563,49.1540728 24.9173886,49.2347952 24.8820421,49.3130959 C24.6954643,49.757069 24.3844474,49.9680773 23.9473774,49.9453136 C23.7540208,49.9386944 23.5808391,49.8747622 23.4262183,49.7536786 C23.2732116,49.6325951 23.1647511,49.46776 23.1000299,49.2591733 C23.0704938,49.1810341 23.0445084,49.0995044 23.0227195,49.0136158 C23.0025446,48.9262742 22.9957658,48.8437759 23.0025446,48.7648294 C23.1252082,47.7624189 23.2622364,46.7491915 23.4126608,45.7241787 C23.4194396,45.6368371 23.4404215,45.5509484 23.476575,45.4652213 C23.5119215,45.3803013 23.5622781,45.3121716 23.6279678,45.260025 C23.7060851,45.1978687 23.8001811,45.1357125 23.9104169,45.0751707 C24.0221054,45.012853 24.1205591,44.9892821 24.2062623,45.0044579 C24.3003582,45.0178578 24.3894507,45.0700045 24.4753153,45.159122 C24.5602114,45.2492082 24.63155,45.3365498 24.6904609,45.4214697 C24.7392035,45.493797 24.7693852,45.5762953 24.7811674,45.6704176 C24.7921426,45.7629254 24.8081211,45.8554333 24.8282961,45.9495556 C25.2090376,45.6855934 25.5226368,45.4871778 25.7697395,45.3543087 C26.0160352,45.2196638 26.2305352,45.1549244 26.4121097,45.159122 C26.5952981,45.1642882 26.780262,45.2398444 26.9668399,45.3878892 C27.1526107,45.5341582 27.3711457,45.7495255 27.6226061,46.0336683 C27.6713488,45.9715121 27.7167021,45.905804 27.757052,45.838643 C27.7974018,45.7697061 27.8453375,45.7099715 27.9016659,45.660408 C28.1655542,45.403065 28.4480034,45.2416203 28.7490135,45.1760737 C29.0516376,45.1113343 29.3440935,45.1441076 29.6265427,45.2735863 C29.9089919,45.4012891 30.1544806,45.6232757 30.3630088,45.939546 C30.5849331,46.2690548 30.7295471,46.6222959 30.7966893,46.9989466 C30.8656069,47.3739828 30.9253248,47.7549924 30.9748744,48.1426213 Z" id="Path" fill="#000000" fill-rule="nonzero"></path>
            <path d="M36.4867103,44.7873901 C36.7735315,45.0412142 36.9401169,45.3172701 36.9854405,45.6155576 C37.0326454,45.9123728 36.9650877,46.186073 36.7824252,46.4375415 C36.5989075,46.6891571 36.3137967,46.8731944 35.9272637,46.9896531 C35.6154718,47.0816717 35.2911946,47.1461584 34.954432,47.1829658 C34.6168143,47.2181537 34.2703028,47.2649728 33.9140426,47.324012 C34.0209377,47.3508078 34.1225309,47.3792231 34.2205324,47.4098469 C34.3202443,47.4389984 34.4182458,47.4590217 34.5162473,47.4712417 C34.7131054,47.5042212 34.9127001,47.5288086 35.1148603,47.5448566 C35.3161653,47.5617881 35.5121683,47.5962398 35.7026983,47.6490953 C35.9753238,47.7274216 36.1410541,47.8593394 36.1980078,48.044849 C36.2551326,48.2312419 36.1802205,48.4121873 35.9736134,48.5876852 C35.8684286,48.6858874 35.7357075,48.7733419 35.5744241,48.8484291 C35.415022,48.9243997 35.2592116,48.9681269 35.1076769,48.980347 C34.4110624,49.0401223 33.8232244,48.9635628 33.3439919,48.7503741 C32.8664697,48.5379215 32.5138012,48.2365421 32.2856441,47.8454998 C32.057658,47.452838 31.9658137,47.0142405 32.0113083,46.5295601 C32.041581,46.2290641 32.1021264,45.940641 32.1931156,45.6645851 C32.2856441,45.387057 32.4299953,45.1201294 32.6277087,44.8640968 C32.8772448,44.5312103 33.1987855,44.2904896 33.593357,44.1432598 C33.9898099,43.99603 34.4146541,43.9623144 34.8689159,44.0419657 C35.5147338,44.140168 36.0538276,44.3886919 36.4867103,44.7873901 Z M35.4854873,45.7259799 C35.499683,45.7259799 35.51576,45.722152 35.5352577,45.7137599 C35.5540712,45.7037482 35.5788709,45.6915282 35.6101698,45.6769524 C35.4649634,45.5013073 35.2841823,45.3763092 35.0685105,45.3026943 C34.8519837,45.2276071 34.6489683,45.212148 34.4592935,45.2566114 C34.2855247,45.3019582 34.1572505,45.3786649 34.0744708,45.4867315 C33.990665,45.5956816 33.9256727,45.7245076 33.8784678,45.8732097 C34.1608422,45.84715 34.4343228,45.8225627 34.6978836,45.7995948 C34.9634967,45.7773631 35.2262023,45.7527758 35.4854873,45.7259799 Z" id="Shape" fill="#000000" fill-rule="nonzero"></path>
            <g id="Clipped" transform="translate(9.000000, 6.000000)">
                <mask id="mask-2" fill="white">
                    <use xlink:href="#path-1"></use>
                </mask>
                <g id="Path"></g>
                <path d="M5.68091585,20.8091188 C4.60443889,20.4400506 3.89391388,19.7070857 3.06002594,19.0966734 C2.71627394,18.6558288 2.34127463,18.2452306 1.97368057,17.8282069 C1.59621811,17.441273 1.371708,16.9042042 1.07895591,16.4324864 C0.513156949,15.2904904 0.193262802,14.0848674 0.120062937,12.8156174 L0.120062937,10.2142738 C0.148847094,9.92701172 0.235199567,9.69441252 0.247531123,9.38994296 C0.0962208754,9.3728138 0.320730988,9.22098648 0.310862585,9.13610862 C0.264804775,8.94184236 0.421057119,8.94917671 0.374178258,8.75492613 C0.484372792,8.53209039 0.569904213,8.29945985 0.630756733,8.05784943 C0.748356516,7.85950854 0.833066886,7.64811313 0.885693105,7.42364753 C1.0246718,7.3322189 1.11020322,7.20570136 1.14145053,7.04246505 C1.25082401,6.96083123 1.39308691,6.9118572 1.39720795,6.72494097 C1.65132327,6.57557411 1.77713357,6.29887477 1.97203847,6.091554 C3.17598362,5.26307019 4.47614965,4.6280377 5.87169971,4.18727145 C6.88891889,4.14320267 7.89060125,4.24848507 8.8758626,4.50479554 C8.42428448,3.26085526 7.27386555,2.71070063 6.70307713,1.58594354 C6.66028773,1.31087406 6.81407692,1.22842531 6.89476098,1.07824352 C7.01476076,1.07987337 7.01886602,0.968055875 7.0221818,0.856222705 C7.02549758,0.743590279 7.03039231,0.630942182 7.15054999,0.633386965 C7.7301805,0.564823328 7.82570664,0.978665608 8.17275863,1.14108699 C8.4293371,1.39330714 8.59544206,1.73612533 8.87491523,1.96548049 C9.35112488,1.23659026 9.94733431,0.62359216 10.6652804,0.126517542 C10.9103325,0.142016842 11.1463847,0.0995779092 11.3709106,-2.81242044e-16 C11.579805,0.00244478342 11.7928046,0.00162985561 12.0058042,-2.81242044e-16 C12.9053289,-0.00327538291 13.8059588,-0.00735002194 14.4391155,0.253035084 C14.6841677,1.23903504 14.0938004,1.88141756 13.9275375,2.66418706 C13.6783801,2.90333702 13.5155909,3.22819546 13.2886966,3.48858056 C13.0139602,3.7016215 12.7532765,3.93097666 12.4572244,4.12279813 C11.6759627,4.27870009 10.7705959,4.14157281 10.0921235,3.99709551 C10.1044393,4.28114487 10.1611234,4.52029484 10.3479125,4.63131308 C10.4876491,4.76760975 10.8716484,4.66151242 10.9877008,4.82148902 C11.4819104,4.76190526 11.9720148,4.67782665 12.4572244,4.56763901 L14.8864305,4.56763901 C15.5715345,4.70476628 16.231849,4.91617736 16.8675321,5.2026715 C17.3847943,5.52590008 17.8748987,5.88504816 18.3387925,6.28091502 C18.7088971,6.88574817 19.1348963,7.43588712 19.3602117,8.18436697 C19.6471059,8.8724638 19.7647373,9.7286865 19.8716318,10.5947824 L19.8716318,13.259753 C19.73679,14.302077 19.4382116,15.2962889 18.9770019,16.2422321 C18.6397393,17.1972648 17.9571617,17.8094009 17.4432152,18.5889107 C16.9794792,18.889337 16.6134799,19.2884949 16.1644281,19.6042794 C15.7524815,19.9357356 15.2121667,20.1389974 14.7590097,20.4295505 C14.3503788,20.5102597 13.8626429,20.5135508 13.5435382,20.6834319 C13.3469596,20.6638423 13.1546442,20.621372 12.9688024,20.5560211 C12.8955394,20.716029 12.6858556,20.7404768 12.4572244,20.7462754 C12.414435,20.5568046 12.0296463,20.7045887 12.0089621,20.492394 C11.9135938,20.4980358 11.8338571,20.4654387 11.7705415,20.3952295 C11.6972785,20.31358 11.6069628,20.2825501 11.4983315,20.3021397 C11.3273318,20.1927513 11.1438584,20.1169003 10.9457009,20.0728629 C10.7475434,20.029609 10.5484385,20.0205195 10.3479125,20.0474748 C9.81249245,20.1715945 9.4472826,20.4654387 9.0691254,20.7462754 C8.68417874,20.7233947 8.54523163,20.9445222 8.23844272,21 C7.39149691,20.9315147 6.42845132,20.9772761 5.68091585,20.8091188 Z M7.27876028,18.6525378 C7.61760176,18.779165 7.50739143,19.1676662 7.47044413,19.5406524 C7.62991752,19.5398688 7.77628568,19.4966149 7.91033806,19.4116744 C8.06902198,19.3088681 8.2417585,19.2671814 8.43012658,19.286771 C8.58959997,19.0231732 8.62986305,18.6395303 9.06817803,18.6525378 C9.19165149,18.646896 9.22607248,18.729329 9.26065136,18.8109785 C9.29523025,18.8924713 9.32980913,18.9750611 9.45233522,18.9700462 C10.0706499,18.8909042 10.8100696,18.646896 11.497542,18.8435757 C11.6743838,18.7357544 11.8659097,18.6721274 12.0732251,18.6533214 C12.3116457,18.6738513 12.5459611,18.7153812 12.7763291,18.7799486 L13.4786436,18.7799486 C14.0895372,18.6028585 14.8141148,18.5390747 15.397219,18.3350294 C15.7960604,18.036327 16.1587439,17.6975051 16.4835328,17.3204442 C16.4671118,17.1466452 16.4884275,16.9777044 16.5468485,16.8136218 C17.1102158,16.1663811 17.7013727,15.5476628 17.8897407,14.5290031 C17.9481617,13.9950686 18.124214,13.578045 18.2088454,13.0694987 C18.2442138,12.516915 18.3083189,11.9668387 18.4005293,11.4198968 C18.1701613,10.3164532 17.8502671,9.30097478 17.8889513,7.93051696 C17.8125303,7.72647157 17.7705304,7.51506049 17.7623199,7.29631506 C17.5805834,7.18122218 17.5295835,6.93553712 17.3140576,6.85227344 C17.2952681,6.72249619 17.1414789,6.72740143 17.1233211,6.59842343 C17.0443739,6.60658838 17.0287423,6.55353971 17.0123213,6.49966045 C16.9941634,6.43926176 16.9769529,6.37804814 16.8675321,6.40824749 C16.133165,5.97074096 15.3444823,5.67445201 14.5024312,5.52017991 C14.1800107,5.52508515 13.8577482,5.51366049 13.5361172,5.485091 C13.0254865,5.42304679 12.5164348,5.43448712 12.0089621,5.52017991 C11.7928046,5.5585442 11.9071202,5.92585724 11.6257523,5.90136239 C11.4695947,5.91360198 11.315016,5.90217732 11.1620163,5.86708841 C10.9982797,5.82953904 10.8339116,5.81974424 10.6668593,5.83770399 C10.5748068,6.04257998 10.6068594,6.36988319 10.6035436,6.6620975 C11.084648,6.67433709 11.3058581,6.42865203 11.7541205,6.40824749 C11.853594,6.28254487 11.9769095,6.18622668 12.1232777,6.11847797 C12.2696458,6.05155986 12.423435,6.02134484 12.5854347,6.02787993 C12.6891714,6.05481957 12.7763291,6.10868316 12.8470658,6.19031699 C12.9168552,6.27112021 12.9572761,6.36499363 12.9678551,6.47190589 C12.9334341,6.78942997 12.8058554,7.06449945 12.5854347,7.29631506 C11.9128044,7.53872474 11.2442793,7.7852404 10.538649,7.99419103 L8.87744154,7.99419103 C8.55596845,7.89052281 8.16123233,7.85950854 7.91854857,7.67749754 C7.56091765,7.60974884 7.24591823,7.49954552 7.2154446,7.10612345 C7.2269709,6.76739557 7.58965444,6.77637545 7.95233798,6.78617026 C8.02717995,6.78780011 8.10202192,6.7902449 8.17433757,6.78861504 C8.55344214,6.88656309 8.93665196,6.90778256 9.32475651,6.85145851 C9.30596707,6.46864618 9.37575641,5.99686566 9.26065136,5.71037152 C8.68165243,5.55283971 7.93007487,5.56752408 7.17754994,5.58303905 C6.80018221,5.58955848 6.42186712,5.59772343 6.06578356,5.58303905 C5.74423152,5.64588253 5.42926368,5.71200138 5.10690638,5.77321499 C5.02219601,5.87769814 4.8223648,5.87197798 4.72285972,5.96340661 C4.58798629,6.01971498 4.53371796,6.15602733 4.33963411,6.15276762 C3.94325589,6.52171051 3.28535711,6.62945337 3.06084699,7.16816767 C3.43666735,7.11265855 3.64061961,7.22775143 3.70065108,7.48486115 C3.69160373,7.92072215 3.40459899,8.07908456 3.31660442,8.43658712 C3.15870997,8.76390601 3.03042073,9.10263389 2.93337881,9.45198717 C3.01232603,9.53116054 3.08470484,9.5009612 3.17762573,9.47076185 C3.26479925,9.43728713 3.35361487,9.43158263 3.4440726,9.45198717 C3.51727247,9.59155923 3.65789326,9.66256765 3.70065108,9.83316965 C3.51973562,9.99236266 3.49753566,10.3081472 3.31660442,10.4673715 C3.13733106,11.1146123 2.93996301,11.7432037 2.80508957,12.4344819 C2.86513683,12.7585724 2.5649637,13.2180663 2.86924208,13.38544 C2.97861557,12.9870656 3.07812065,12.5781913 3.57154079,12.5609524 C3.58635129,12.680214 3.73684048,12.9806402 3.57154079,13.0687151 C3.59374075,13.2727605 3.55098293,13.4630148 3.44489365,13.6393213 C3.45476206,13.8538667 3.43338315,14.0662181 3.38157798,14.2743381 C3.47203571,14.5363688 3.19982568,14.7640784 3.38157798,14.9085714 C3.52219877,14.582757 3.48190411,14.0767181 4.02056101,14.1477109 C4.18091861,14.6971603 3.98601371,15.4161774 3.89309283,15.9231565 C3.9810874,16.0055896 3.9564085,16.1989782 3.95722955,16.367919 C3.85114027,16.4943895 3.96217165,16.8380697 3.82894032,16.9385252 C3.86841393,17.1311302 3.74752994,17.4845268 3.89227178,17.5727584 C4.01069261,17.0985331 4.08305564,16.5768226 4.72368077,16.6218004 C4.93502249,16.686211 4.93914353,16.9573312 4.9794382,17.1924065 C5.12582214,17.1515034 5.36430591,17.0657793 5.49095304,17.1924065 C5.52548456,17.4331237 5.6455475,17.589057 5.61842123,17.8902668 C5.85608395,17.8305577 5.95064693,17.6282362 6.32154099,17.7000125 C6.56495106,18.1472825 6.13074134,18.9039117 6.44818812,19.2223604 C6.44983022,19.1178302 6.62586674,19.1872558 6.64055093,19.0966734 C6.78865592,19.116263 6.71128764,18.9130012 6.83223478,18.9064191 C6.91449779,18.7832397 6.98349766,18.6451721 7.19081307,18.6451721 C7.22033933,18.6451721 7.25002349,18.6476795 7.27876028,18.6525378 Z M1.9103649,11.4198968 C1.8758176,11.5587479 1.75493361,11.830495 1.97368057,11.8640324 C1.87171234,11.6574796 2.18996439,11.4198968 1.9185912,11.4198968 L1.9103649,11.4198968 Z M9.89886071,2.15730196 C9.90296597,2.33360846 9.8396503,2.48216039 9.70891369,2.60132791 C9.68917689,2.79396431 9.4613352,2.78009487 9.45312469,2.9825104 C10.0550183,3.27227992 10.9761745,3.24534028 11.8815413,3.23554548 C12.2590669,3.03964937 12.4531247,2.6617266 12.7771186,2.41115197 C12.86175,1.90345195 13.2482756,1.69531625 13.2886966,1.14190192 L11.0500691,1.14190192 C10.9152273,1.19904089 10.8618589,1.33535324 10.6660698,1.33290846 C10.4120177,1.60797793 10.2179654,1.94507596 9.89886071,2.15730196 Z M14.5024312,13.8311428 C14.4629576,13.0923794 14.167695,11.7823829 15.0773249,11.8002487 C15.5469029,12.1324885 15.6135344,13.077648 15.4613242,13.8311428 C15.2475351,13.8311428 15.2426403,14.0375389 15.0130618,14.0212404 C14.9909566,14.025315 14.967904,14.0270413 14.9448514,14.0270413 C14.7310623,14.0278225 14.7087992,13.8375682 14.5024312,13.8311428 Z M16.100323,10.9751343 C16.1085335,10.7301858 16.3592699,10.7253275 16.4202171,10.5309986 C17.0369528,10.5472972 17.0328476,11.5463673 16.7393218,11.9268759 C16.6981113,11.9325177 16.6562693,11.9358125 16.6142694,11.9358125 C16.1200598,11.9373759 16.1249545,11.4419939 16.0995335,10.9759178 L16.100323,10.9751343 Z M12.6430662,11.0281046 C12.6594872,10.564536 12.9885392,10.1000272 13.6076434,10.277274 C13.9095375,10.6950812 13.9292743,11.5227031 13.4794331,11.7994651 C13.4202226,11.811689 13.3610122,11.8174875 13.300065,11.8182723 C12.8429606,11.8190547 12.6290136,11.4239714 12.6430662,11.0288881 L12.6430662,11.0281046 Z" id="Shape" fill="#000000" fill-rule="nonzero" mask="url(#mask-2)"></path>
            </g>
            <g id="Clipped" transform="translate(0.000000, 17.000000)">
                <mask id="mask-4" fill="white">
                    <use xlink:href="#path-3"></use>
                </mask>
                <g id="Path"></g>
                <g mask="url(#mask-4)">
                    <g transform="translate(0.007045, 0.012284)">
                        <mask id="mask-6" fill="white">
                            <use xlink:href="#path-5"></use>
                        </mask>
                        <g id="Path" stroke="none" fill="none"></g>
                        <polygon id="Path" stroke="none" fill="#000000" fill-rule="nonzero" mask="url(#mask-6)" points="-0.670914098 -0.661628429 7.67016594 -0.661628429 7.67016594 2.66296009 -0.670914098 2.66296009"></polygon>
                    </g>
                </g>
            </g>
            <g id="Clipped" transform="translate(3.000000, 9.000000)">
                <mask id="mask-8" fill="white">
                    <use xlink:href="#path-7"></use>
                </mask>
                <g id="Path"></g>
                <g mask="url(#mask-8)">
                    <g transform="translate(0.002457, 0.004640)">
                        <mask id="mask-10" fill="white">
                            <use xlink:href="#path-9"></use>
                        </mask>
                        <g id="Path" stroke="none" fill="none"></g>
                        <polygon id="Path" stroke="none" fill="#000000" fill-rule="nonzero" mask="url(#mask-10)" points="-0.575604085 -0.654137742 4.57145836 -0.654137742 4.57145836 3.65178124 -0.575604085 3.65178124"></polygon>
                    </g>
                </g>
            </g>
            <g id="Clipped" transform="translate(31.000000, 8.000000)">
                <mask id="mask-12" fill="white">
                    <use xlink:href="#path-11"></use>
                </mask>
                <g id="Path"></g>
                <g mask="url(#mask-12)">
                    <g transform="translate(0.003485, 0.010078)">
                        <mask id="mask-14" fill="white">
                            <use xlink:href="#path-13"></use>
                        </mask>
                        <g id="Path" stroke="none" fill="none"></g>
                        <polygon id="Path" stroke="none" fill="#000000" fill-rule="nonzero" mask="url(#mask-14)" points="-0.589501365 -0.673394382 6.6418749 -0.673394382 6.6418749 4.63233632 -0.589501365 4.63233632"></polygon>
                    </g>
                </g>
            </g>
            <g id="Clipped" transform="translate(32.000000, 17.000000)">
                <mask id="mask-16" fill="white">
                    <use xlink:href="#path-15"></use>
                </mask>
                <g id="Path"></g>
                <g mask="url(#mask-16)">
                    <g transform="translate(0.001106, 0.001273)">
                        <mask id="mask-18" fill="white">
                            <use xlink:href="#path-17"></use>
                        </mask>
                        <g id="Path" stroke="none" fill="none"></g>
                        <polygon id="Path" stroke="none" fill="#000000" fill-rule="nonzero" mask="url(#mask-18)" points="-0.686038888 -0.716285962 6.69636613 -0.716285962 6.69636613 2.67391502 -0.686038888 2.67391502"></polygon>
                    </g>
                </g>
            </g>
            <g id="Clipped" transform="translate(31.000000, 23.000000)">
                <mask id="mask-20" fill="white">
                    <use xlink:href="#path-19"></use>
                </mask>
                <g id="Path"></g>
                <g mask="url(#mask-20)">
                    <g transform="translate(0.003139, 0.011093)">
                        <mask id="mask-22" fill="white">
                            <use xlink:href="#path-21"></use>
                        </mask>
                        <g id="Path" stroke="none" fill="none"></g>
                        <polygon id="Path" stroke="none" fill="#000000" fill-rule="nonzero" mask="url(#mask-22)" points="-0.595968356 -0.534616413 5.58891781 -0.534616413 5.58891781 2.51229618 -0.595968356 2.51229618"></polygon>
                    </g>
                </g>
            </g>
            <g id="Clipped" transform="translate(0.000000, 23.000000)">
                <mask id="mask-24" fill="white">
                    <use xlink:href="#path-23"></use>
                </mask>
                <g id="Path"></g>
                <g mask="url(#mask-24)">
                    <g transform="translate(0.009845, 0.015605)">
                        <mask id="mask-26" fill="white">
                            <use xlink:href="#path-25"></use>
                        </mask>
                        <g id="Path" stroke="none" fill="none"></g>
                        <polygon id="Path" stroke="none" fill="#000000" fill-rule="nonzero" mask="url(#mask-26)" points="-0.63164931 -0.693668503 6.62770959 -0.693668503 6.62770959 3.64510276 -0.63164931 3.64510276"></polygon>
                    </g>
                </g>
            </g>
            <g id="Clipped" transform="translate(10.000000, 2.000000)">
                <mask id="mask-28" fill="white">
                    <use xlink:href="#path-27"></use>
                </mask>
                <g id="Path"></g>
                <g mask="url(#mask-28)">
                    <g transform="translate(0.010983, 0.016329)">
                        <mask id="mask-30" fill="white">
                            <use xlink:href="#path-29"></use>
                        </mask>
                        <g id="Path" stroke="none" fill="none"></g>
                        <polygon id="Path" stroke="none" fill="#000000" fill-rule="nonzero" mask="url(#mask-30)" points="-0.550243019 -0.603765128 3.51305341 -0.603765128 3.51305341 5.53535256 -0.550243019 5.53535256"></polygon>
                    </g>
                </g>
            </g>
            <g id="Clipped" transform="translate(20.000000, 0.000000)">
                <mask id="mask-32" fill="white">
                    <use xlink:href="#path-31"></use>
                </mask>
                <g id="Path"></g>
                <g mask="url(#mask-32)">
                    <g transform="translate(0.012361, 0.011443)">
                        <mask id="mask-34" fill="white">
                            <use xlink:href="#path-33"></use>
                        </mask>
                        <g id="Path" stroke="none" fill="none"></g>
                        <polygon id="Path" stroke="none" fill="#000000" fill-rule="nonzero" mask="url(#mask-34)" points="-0.78485235 -0.66978396 2.74698322 -0.66978396 2.74698322 5.65841451 -0.78485235 5.65841451"></polygon>
                    </g>
                </g>
            </g>
            <g id="Clipped" transform="translate(22.000000, 20.000000)">
                <mask id="mask-36" fill="white">
                    <use xlink:href="#path-35"></use>
                </mask>
                <g id="Path"></g>
                <g mask="url(#mask-36)">
                    <g transform="translate(0.008150, 0.001449)">
                        <mask id="mask-38" fill="white">
                            <use xlink:href="#path-37"></use>
                        </mask>
                        <g id="Path" stroke="none" fill="none"></g>
                        <polygon id="Path" stroke="none" fill="#000000" fill-rule="nonzero" mask="url(#mask-38)" points="-0.594454355 -0.558697468 4.59083144 -0.558697468 4.59083144 2.54400524 -0.594454355 2.54400524"></polygon>
                    </g>
                </g>
            </g>
            <g id="Clipped" transform="translate(27.000000, 3.000000)">
                <mask id="mask-40" fill="white">
                    <use xlink:href="#path-39"></use>
                </mask>
                <g id="Path"></g>
                <g mask="url(#mask-40)">
                    <g transform="translate(0.003967, 0.002995)">
                        <mask id="mask-42" fill="white">
                            <use xlink:href="#path-41"></use>
                        </mask>
                        <g id="Path" stroke="none" fill="none"></g>
                        <polygon id="Path" stroke="none" fill="#000000" fill-rule="nonzero" mask="url(#mask-42)" points="-0.610267755 -0.608348585 4.60233427 -0.608348585 4.60233427 4.56184666 -0.610267755 4.56184666"></polygon>
                    </g>
                </g>
            </g>
        </g>
    </g>
</svg>