<svg width="241" height="313" viewBox="0 0 241 313" fill="none" xmlns="http://www.w3.org/2000/svg">
<path d="M35.3069 230.88C36.0986 234.036 35.8486 236.854 34.5569 239.338C33.2757 241.828 31.1715 243.557 28.2444 244.526C24.9528 245.682 20.9996 246.349 16.3903 246.526C14.3069 246.609 12.4528 246.13 10.8278 245.088C9.21318 244.047 7.9163 242.994 6.93193 241.922C5.87464 240.729 5.22359 239.442 4.97359 238.067C4.73401 236.692 4.95276 235.453 5.61943 234.338C6.67151 232.479 8.42151 231.547 10.8694 231.547C11.5361 231.547 12.2028 231.619 12.8694 231.755C13.1298 231.838 13.4163 231.916 13.7236 231.984C14.0413 232.057 14.333 232.13 14.5986 232.213C15.7913 232.562 17.0048 232.849 18.2444 233.067C19.4944 233.291 20.8069 233.208 22.1819 232.817L24.3903 232.151L24.0569 231.422C23.4736 230.047 22.6455 229.041 21.5778 228.401C20.5205 227.75 19.4163 227.244 18.2653 226.88C13.6923 225.505 9.56214 222.958 5.86943 219.234C3.16109 216.484 1.89547 213.401 2.07776 209.984C2.25484 206.609 3.7913 203.75 6.68193 201.401C12.1819 196.875 18.4111 195.432 25.3694 197.067C28.4788 197.776 30.7913 199.354 32.3069 201.797C32.8746 202.812 33.208 203.922 33.3069 205.13C33.3069 205.479 33.2548 205.875 33.1611 206.317C33.0778 206.765 32.8798 207.099 32.5778 207.317C32.0361 207.724 31.208 207.703 30.0986 207.255C28.7653 206.713 27.1455 206.213 25.2444 205.755C23.3382 205.286 21.3173 205.291 19.1819 205.776C18.1663 206 17.1819 206.333 16.2236 206.776C15.2653 207.224 14.3903 207.692 13.5986 208.192C12.6663 208.724 12.2028 209.411 12.2028 210.255C12.2028 211.088 12.6455 211.797 13.5361 212.38L14.9944 213.234C16.1871 213.942 17.3955 214.645 18.6194 215.338C19.8382 216.02 21.0986 216.63 22.3903 217.172C29.484 220.005 33.7913 224.578 35.3069 230.88Z" fill="#59A96A"/>
<path d="M61.7167 215.63C63.7167 215.953 65.4459 216.682 66.9042 217.817C68.3626 218.942 69.4459 220.349 70.1542 222.026C70.873 223.708 71.0761 225.546 70.7584 227.546C70.4511 229.953 69.8209 232.187 68.8626 234.255C67.9147 236.312 66.5761 238.182 64.8417 239.859C62.0084 242.609 58.5709 243.963 54.5292 243.921C53.1542 243.619 51.7636 243.349 50.3626 243.109C48.9563 242.859 47.597 242.515 46.2792 242.067C43.6542 241.14 41.7428 239.651 40.5501 237.609C39.3522 235.567 38.9511 233.171 39.3417 230.421C39.8261 227.171 40.9251 224.338 42.6334 221.921C44.3417 219.505 46.597 217.458 49.4042 215.776C51.7897 214.349 54.3626 214.015 57.1126 214.776C57.873 215 58.6438 215.182 59.4251 215.317C60.2011 215.442 60.9667 215.546 61.7167 215.63ZM59.7792 228.484C60.3209 226.89 59.9251 225.625 58.5917 224.692C57.3417 223.807 56.3834 223.244 55.7167 223.005C55.0501 222.755 54.4511 222.869 53.9251 223.338C53.3938 223.796 52.7063 224.645 51.8626 225.88C51.597 226.286 51.373 226.619 51.1959 226.88C49.9042 229.145 49.498 230.734 49.9876 231.651C50.4876 232.557 52.0188 233.078 54.5917 233.213C55.9251 233.255 56.9511 232.937 57.6751 232.255C58.4095 231.562 59.1126 230.307 59.7792 228.484Z" fill="#59A96A"/>
<path d="M84.4676 204.38C84.7697 208.744 85.077 213.098 85.3843 217.442C85.702 221.791 85.952 226.14 86.1343 230.484C86.1759 231.9 86.0822 233.348 85.8634 234.817C85.6395 236.275 85.353 237.713 85.0093 239.13C84.6864 240.421 84.0718 241.39 83.1551 242.025C82.2489 242.666 81.2905 242.984 80.2801 242.984C79.2072 242.942 78.2645 242.567 77.4468 241.859C76.6239 241.15 76.0353 240.15 75.6759 238.859C75.452 238.067 75.2853 237.265 75.1759 236.442C75.0614 235.624 74.9884 234.791 74.9468 233.942C74.9468 233.192 74.952 231.838 74.9676 229.88C74.9937 227.921 75.0405 225.671 75.1134 223.13C75.1812 220.578 75.2593 217.973 75.3426 215.317C75.4364 212.65 75.5405 210.182 75.6551 207.9C75.7645 205.609 75.8843 203.817 76.0093 202.525C76.0614 201.942 76.1551 201.354 76.2801 200.755C76.4155 200.161 76.6395 199.661 76.9468 199.255C77.3478 198.77 77.853 198.286 78.4676 197.796C79.0926 197.312 79.6759 197.067 80.2176 197.067C80.7853 197.109 81.4051 197.369 82.0718 197.838C82.7384 198.296 83.202 198.796 83.4676 199.338C83.827 200.088 84.0718 200.911 84.1968 201.796C84.3322 202.687 84.4259 203.546 84.4676 204.38Z" fill="#59A96A"/>
<path d="M117.28 214.713C118.957 216.437 119.931 218.312 120.197 220.338C120.473 222.354 120.077 224.213 119.009 225.921C117.936 227.63 116.27 228.88 114.009 229.671C112.186 230.296 110.29 230.734 108.322 230.984C106.348 231.223 104.322 231.541 102.238 231.942C102.863 232.124 103.457 232.317 104.03 232.525C104.613 232.723 105.186 232.859 105.759 232.942C106.91 233.166 108.077 233.333 109.259 233.442C110.436 233.557 111.582 233.791 112.697 234.15C114.29 234.682 115.259 235.578 115.593 236.838C115.926 238.104 115.488 239.333 114.28 240.525C113.665 241.192 112.889 241.786 111.947 242.296C111.014 242.812 110.103 243.109 109.218 243.192C105.145 243.598 101.707 243.078 98.905 241.63C96.1134 240.187 94.0509 238.14 92.7175 235.484C91.3842 232.817 90.8477 229.838 91.1134 226.546C91.2904 224.505 91.6446 222.546 92.1759 220.671C92.7175 218.786 93.5613 216.973 94.7175 215.234C96.1759 212.973 98.0561 211.338 100.363 210.338C102.681 209.338 105.165 209.109 107.822 209.65C111.598 210.317 114.749 212.005 117.28 214.713ZM111.426 221.088C111.509 221.088 111.603 221.062 111.718 221.005C111.827 220.937 111.973 220.854 112.155 220.755C111.306 219.562 110.249 218.713 108.988 218.213C107.723 217.703 106.535 217.598 105.426 217.9C104.41 218.208 103.66 218.729 103.176 219.463C102.686 220.203 102.306 221.078 102.03 222.088C103.681 221.911 105.28 221.744 106.822 221.588C108.374 221.437 109.91 221.27 111.426 221.088Z" fill="#59A96A"/>
<path d="M135.172 218.505C135.172 219.255 135.172 220.354 135.172 221.796C135.172 223.244 135.157 224.786 135.131 226.421C135.115 228.062 135.094 229.546 135.068 230.88C135.053 232.213 135.047 233.145 135.047 233.671C135.006 234.338 134.949 235.005 134.881 235.671C134.808 236.338 134.714 237.005 134.589 237.671C134.266 239.453 133.641 240.817 132.714 241.776C131.782 242.723 130.719 243.151 129.527 243.067C128.318 242.973 127.266 242.416 126.381 241.401C125.506 240.375 125.152 239 125.318 237.276C125.594 233.984 125.995 230.713 126.527 227.463C127.053 224.203 127.61 220.921 128.193 217.63C128.37 216.744 128.803 216.036 129.485 215.505C130.178 214.979 131.032 214.776 132.047 214.901C133.074 215 133.839 215.395 134.339 216.088C134.85 216.77 135.131 217.578 135.172 218.505ZM130.193 209.171C129.12 209.13 128.219 208.703 127.485 207.88C126.761 207.062 126.402 206.078 126.402 204.921C126.402 203.77 126.797 202.786 127.589 201.963C128.391 201.145 129.37 200.734 130.527 200.734C131.62 200.734 132.558 201.125 133.339 201.901C134.115 202.666 134.485 203.63 134.443 204.796C134.443 205.994 134.011 207.036 133.152 207.921C132.287 208.812 131.303 209.229 130.193 209.171Z" fill="#59A96A"/>
<path d="M149.683 204.38C149.986 208.744 150.293 213.098 150.6 217.442C150.918 221.791 151.168 226.14 151.35 230.484C151.392 231.9 151.298 233.348 151.079 234.817C150.855 236.275 150.569 237.713 150.225 239.13C149.902 240.421 149.288 241.39 148.371 242.025C147.465 242.666 146.506 242.984 145.496 242.984C144.423 242.942 143.48 242.567 142.663 241.859C141.84 241.15 141.251 240.15 140.892 238.859C140.668 238.067 140.501 237.265 140.392 236.442C140.277 235.624 140.204 234.791 140.163 233.942C140.163 233.192 140.168 231.838 140.183 229.88C140.209 227.921 140.256 225.671 140.329 223.13C140.397 220.578 140.475 217.973 140.558 215.317C140.652 212.65 140.756 210.182 140.871 207.9C140.98 205.609 141.1 203.817 141.225 202.525C141.277 201.942 141.371 201.354 141.496 200.755C141.631 200.161 141.855 199.661 142.163 199.255C142.564 198.77 143.069 198.286 143.683 197.796C144.308 197.312 144.892 197.067 145.433 197.067C146.001 197.109 146.621 197.369 147.288 197.838C147.954 198.296 148.418 198.796 148.683 199.338C149.043 200.088 149.288 200.911 149.413 201.796C149.548 202.687 149.642 203.546 149.683 204.38Z" fill="#59A96A"/>
<path d="M206.595 198.401C206.637 204.833 206.663 211.291 206.678 217.776C206.705 224.25 206.699 230.729 206.658 237.213C206.658 239.645 205.939 241.317 204.512 242.234C203.095 243.14 201.231 243.213 198.928 242.463C198.58 242.328 198.158 242.307 197.658 242.401C197.168 242.484 196.751 242.599 196.408 242.734C194.767 243.442 193.095 243.932 191.387 244.192C189.678 244.458 187.955 244.39 186.22 243.984C183.689 243.416 181.543 242.312 179.783 240.671C178.033 239.02 176.788 237.015 176.053 234.651C175.33 232.276 175.189 229.687 175.637 226.88C175.814 225.645 176.106 224.401 176.512 223.151C178.106 218.359 180.533 215.166 183.783 213.567C187.043 211.974 191.074 211.994 195.866 213.63C196.085 213.729 196.33 213.812 196.595 213.88C196.871 213.937 197.184 214.015 197.533 214.109C197.71 211.401 197.887 208.729 198.053 206.088C198.231 203.453 198.413 200.817 198.595 198.192C198.637 197.708 198.658 197.203 198.658 196.671C198.658 196.13 198.793 195.687 199.074 195.338C199.418 194.755 199.871 194.187 200.428 193.63C200.981 193.078 201.522 192.776 202.053 192.734C202.678 192.692 203.33 192.89 204.012 193.317C204.705 193.734 205.272 194.208 205.72 194.734C206.08 195.14 206.314 195.687 206.428 196.38C206.538 197.062 206.595 197.734 206.595 198.401ZM195.928 231.276C196.106 231.234 196.262 231.083 196.387 230.817C196.522 230.557 196.621 230.312 196.678 230.088C196.72 229.062 196.408 228.026 195.741 226.984C195.074 225.942 194.22 225.083 193.178 224.401C192.137 223.708 191.1 223.38 190.074 223.421C189.809 223.463 189.475 223.567 189.074 223.734C188.684 223.89 188.439 224.057 188.345 224.234C187.996 225.291 187.642 226.338 187.283 227.38C186.934 228.421 186.689 229.5 186.553 230.609C186.47 231.416 186.71 232.041 187.283 232.484C187.866 232.932 188.6 233.171 189.491 233.213C190.543 232.895 191.616 232.583 192.699 232.276C193.793 231.974 194.871 231.64 195.928 231.276Z" fill="#59A96A"/>
<path d="M237.863 214.713C239.54 216.437 240.514 218.312 240.78 220.338C241.056 222.354 240.66 224.213 239.592 225.921C238.519 227.63 236.853 228.88 234.592 229.671C232.769 230.296 230.873 230.734 228.905 230.984C226.931 231.223 224.905 231.541 222.821 231.942C223.446 232.124 224.04 232.317 224.613 232.525C225.196 232.723 225.769 232.859 226.342 232.942C227.493 233.166 228.66 233.333 229.842 233.442C231.019 233.557 232.165 233.791 233.28 234.15C234.873 234.682 235.842 235.578 236.176 236.838C236.509 238.104 236.071 239.333 234.863 240.525C234.248 241.192 233.472 241.786 232.53 242.296C231.597 242.812 230.686 243.109 229.801 243.192C225.728 243.598 222.29 243.078 219.488 241.63C216.696 240.187 214.634 238.14 213.301 235.484C211.967 232.817 211.431 229.838 211.696 226.546C211.873 224.505 212.228 222.546 212.759 220.671C213.301 218.786 214.144 216.973 215.301 215.234C216.759 212.973 218.639 211.338 220.946 210.338C223.264 209.338 225.748 209.109 228.405 209.65C232.181 210.317 235.332 212.005 237.863 214.713ZM232.009 221.088C232.092 221.088 232.186 221.062 232.301 221.005C232.41 220.937 232.556 220.854 232.738 220.755C231.889 219.562 230.832 218.713 229.571 218.213C228.306 217.703 227.118 217.598 226.009 217.9C224.993 218.208 224.243 218.729 223.759 219.463C223.269 220.203 222.889 221.078 222.613 222.088C224.264 221.911 225.863 221.744 227.405 221.588C228.957 221.437 230.493 221.27 232.009 221.088Z" fill="#59A96A"/>
<path d="M52.2078 274.38C52.8328 278.062 52.4995 281.494 51.2078 284.671C49.9162 287.838 47.8537 290.515 45.0203 292.692C42.187 294.859 38.7703 296.276 34.7703 296.942C33.8797 297.124 32.9006 297.208 31.8328 297.192C30.7756 297.166 29.7131 297.13 28.6453 297.088C28.1141 297.036 27.5724 296.999 27.0203 296.984C26.4631 296.958 25.9162 296.942 25.3745 296.942H24.6453L24.7287 298.671C24.7703 299.479 24.812 300.437 24.8537 301.546C24.8953 302.661 24.9162 303.567 24.9162 304.276V304.859C24.8745 305.624 24.8172 306.38 24.7495 307.13C24.6766 307.88 24.5099 308.567 24.2495 309.192C23.7183 310.526 23.0464 311.453 22.2287 311.963C21.4058 312.463 20.6662 312.765 19.9995 312.859C19.1089 312.984 18.2808 312.916 17.5203 312.651C16.7703 312.39 16.2183 312.057 15.8745 311.651L15.6662 311.526C14.9578 311.083 14.5308 310.453 14.3953 309.63C14.2703 308.812 14.2287 307.869 14.2703 306.796C14.312 306.13 14.3537 305.463 14.3953 304.796C14.4474 304.13 14.4995 303.442 14.5412 302.734C14.6245 301.458 14.6974 300.145 14.7703 298.796C14.8381 297.437 14.8745 296.067 14.8745 294.692C14.8745 292.333 14.7703 289.958 14.562 287.567C14.3641 285.166 14.1558 282.791 13.937 280.442C13.7131 278.265 13.5099 276.067 13.3328 273.859C13.1506 271.64 13.0412 269.416 12.9995 267.192C12.9995 266.609 13.0047 266.046 13.0203 265.505C13.0464 264.953 13.1089 264.401 13.2078 263.859C13.5516 262.083 14.4839 260.953 15.9995 260.463C16.4006 260.38 16.8016 260.338 17.2078 260.338C18.3016 260.338 19.3172 260.786 20.2495 261.671C20.3849 261.755 20.5464 261.958 20.7287 262.276C20.8537 262.442 20.9631 262.598 21.062 262.734L21.5203 263.338L22.062 262.942C25.1558 260.765 28.7078 259.494 32.7078 259.13C36.1662 258.869 39.2547 259.312 41.9787 260.463C44.7131 261.619 46.9683 263.374 48.7495 265.734C50.5256 268.083 51.6766 270.963 52.2078 274.38ZM37.4995 282.63C40.2495 280.02 41.0464 277.119 39.8953 273.921C39.3641 272.494 38.4995 271.515 37.2912 270.984C36.3172 270.583 35.1662 270.473 33.8328 270.651C32.4995 270.833 31.2391 271.249 30.062 271.901C28.8953 272.541 28.0256 273.348 27.4578 274.317C25.4995 277.473 24.5203 281.265 24.5203 285.692V286.359L25.187 286.421C25.7131 286.421 26.1974 286.421 26.6453 286.421C31.2547 286.421 34.8745 285.161 37.4995 282.63Z" fill="#59A96A"/>
<path d="M78.4946 281.63C80.4946 281.953 82.2237 282.682 83.6821 283.817C85.1404 284.942 86.2237 286.349 86.9321 288.026C87.6508 289.708 87.854 291.546 87.5362 293.546C87.229 295.953 86.5987 298.187 85.6404 300.255C84.6925 302.312 83.354 304.182 81.6196 305.859C78.7862 308.609 75.3487 309.963 71.3071 309.921C69.9321 309.619 68.5415 309.349 67.1404 309.109C65.7342 308.859 64.3748 308.515 63.0571 308.067C60.4321 307.14 58.5206 305.651 57.3279 303.609C56.13 301.567 55.729 299.171 56.1196 296.421C56.604 293.171 57.7029 290.338 59.4112 287.921C61.1196 285.505 63.3748 283.458 66.1821 281.776C68.5675 280.349 71.1404 280.015 73.8904 280.776C74.6508 281 75.4217 281.182 76.2029 281.317C76.979 281.442 77.7446 281.546 78.4946 281.63ZM76.5571 294.484C77.0987 292.89 76.7029 291.625 75.3696 290.692C74.1196 289.807 73.1612 289.244 72.4946 289.005C71.8279 288.755 71.229 288.869 70.7029 289.338C70.1717 289.796 69.4842 290.645 68.6404 291.88C68.3748 292.286 68.1508 292.619 67.9737 292.88C66.6821 295.145 66.2758 296.734 66.7654 297.651C67.2654 298.557 68.7967 299.078 71.3696 299.213C72.7029 299.255 73.729 298.937 74.4529 298.255C75.1873 297.562 75.8904 296.307 76.5571 294.484Z" fill="#59A96A"/>
<path d="M141.12 298.151C141.204 299.041 141.251 299.942 141.266 300.859C141.292 301.765 141.266 302.661 141.183 303.546C141.001 304.963 140.521 306.151 139.745 307.109C138.98 308.057 138.042 308.619 136.933 308.796C135.501 309.062 134.251 308.911 133.183 308.338C132.126 307.755 131.355 306.89 130.87 305.734C130.287 304.276 129.839 302.75 129.537 301.151C129.23 299.541 128.917 297.937 128.6 296.338C128.417 295.63 128.313 294.901 128.287 294.151C128.271 293.401 128.225 292.671 128.141 291.963C128.001 291.911 127.798 291.859 127.537 291.817C126.563 293.109 125.725 294.458 125.016 295.859C124.308 297.25 123.881 298.791 123.745 300.484C123.704 301.098 123.683 301.729 123.683 302.38C123.683 303.02 123.631 303.651 123.537 304.276C123.313 305.958 122.667 307.291 121.6 308.276C120.542 309.25 119.287 309.708 117.829 309.651C116.355 309.609 115.105 309.046 114.079 307.963C113.063 306.88 112.537 305.473 112.495 303.734C112.495 302.5 112.548 301.265 112.662 300.026C112.771 298.776 112.808 297.526 112.766 296.276C112.766 294.942 112.714 293.64 112.62 292.359C112.537 291.067 112.475 289.776 112.433 288.484C112.251 288.442 112.084 288.395 111.933 288.338C111.777 288.27 111.61 288.208 111.433 288.151C110.902 288.817 110.329 289.479 109.704 290.13C109.079 290.77 108.61 291.463 108.308 292.213C107.542 293.911 106.85 295.609 106.225 297.317C105.61 299.026 104.995 300.723 104.37 302.401C104.188 302.89 104.027 303.39 103.891 303.901C103.766 304.416 103.589 304.916 103.37 305.401C102.214 308.151 100.287 309.458 97.5788 309.317C96.3809 309.276 95.3079 308.88 94.3496 308.13C93.4017 307.38 92.7298 306.359 92.3288 305.067C92.1465 304.583 91.985 304.078 91.8496 303.546C91.7246 303.005 91.6829 302.494 91.7246 302.005C92.485 295.796 93.334 289.52 94.2663 283.171C94.3079 282.63 94.4382 282.098 94.6621 281.567C94.8809 281.041 95.1934 280.619 95.5996 280.296C96.084 279.911 96.6673 279.526 97.3496 279.151C98.0423 278.765 98.6517 278.619 99.1829 278.713C99.7663 278.796 100.318 279.119 100.85 279.671C101.376 280.229 101.818 280.77 102.183 281.296C102.485 281.744 102.673 282.255 102.745 282.838C102.813 283.411 102.912 283.984 103.037 284.567C105.396 282.932 107.339 281.703 108.87 280.88C110.396 280.046 111.725 279.645 112.85 279.671C113.985 279.703 115.131 280.171 116.287 281.088C117.438 281.994 118.792 283.328 120.35 285.088C120.652 284.703 120.933 284.296 121.183 283.88C121.433 283.453 121.73 283.083 122.079 282.776C123.714 281.182 125.464 280.182 127.329 279.776C129.204 279.375 131.016 279.578 132.766 280.38C134.516 281.171 136.037 282.546 137.329 284.505C138.704 286.546 139.6 288.734 140.016 291.067C140.443 293.39 140.813 295.75 141.12 298.151Z" fill="#59A96A"/>
<path d="M195.622 298.151C195.706 299.041 195.753 299.942 195.768 300.859C195.794 301.765 195.768 302.661 195.685 303.546C195.503 304.963 195.023 306.151 194.247 307.109C193.482 308.057 192.544 308.619 191.435 308.796C190.003 309.062 188.753 308.911 187.685 308.338C186.628 307.755 185.857 306.89 185.372 305.734C184.789 304.276 184.341 302.75 184.039 301.151C183.732 299.541 183.419 297.937 183.102 296.338C182.919 295.63 182.815 294.901 182.789 294.151C182.773 293.401 182.727 292.671 182.643 291.963C182.503 291.911 182.299 291.859 182.039 291.817C181.065 293.109 180.227 294.458 179.518 295.859C178.81 297.25 178.383 298.791 178.247 300.484C178.206 301.098 178.185 301.729 178.185 302.38C178.185 303.02 178.133 303.651 178.039 304.276C177.815 305.958 177.169 307.291 176.102 308.276C175.044 309.25 173.789 309.708 172.331 309.651C170.857 309.609 169.607 309.046 168.581 307.963C167.565 306.88 167.039 305.473 166.997 303.734C166.997 302.5 167.049 301.265 167.164 300.026C167.273 298.776 167.31 297.526 167.268 296.276C167.268 294.942 167.216 293.64 167.122 292.359C167.039 291.067 166.977 289.776 166.935 288.484C166.753 288.442 166.586 288.395 166.435 288.338C166.279 288.27 166.112 288.208 165.935 288.151C165.404 288.817 164.831 289.479 164.206 290.13C163.581 290.77 163.112 291.463 162.81 292.213C162.044 293.911 161.352 295.609 160.727 297.317C160.112 299.026 159.497 300.723 158.872 302.401C158.69 302.89 158.529 303.39 158.393 303.901C158.268 304.416 158.091 304.916 157.872 305.401C156.716 308.151 154.789 309.458 152.081 309.317C150.883 309.276 149.81 308.88 148.852 308.13C147.904 307.38 147.232 306.359 146.831 305.067C146.648 304.583 146.487 304.078 146.352 303.546C146.227 303.005 146.185 302.494 146.227 302.005C146.987 295.796 147.836 289.52 148.768 283.171C148.81 282.63 148.94 282.098 149.164 281.567C149.383 281.041 149.695 280.619 150.102 280.296C150.586 279.911 151.169 279.526 151.852 279.151C152.544 278.765 153.154 278.619 153.685 278.713C154.268 278.796 154.82 279.119 155.352 279.671C155.878 280.229 156.32 280.77 156.685 281.296C156.987 281.744 157.174 282.255 157.247 282.838C157.315 283.411 157.414 283.984 157.539 284.567C159.898 282.932 161.841 281.703 163.372 280.88C164.898 280.046 166.227 279.645 167.352 279.671C168.487 279.703 169.633 280.171 170.789 281.088C171.94 281.994 173.294 283.328 174.852 285.088C175.154 284.703 175.435 284.296 175.685 283.88C175.935 283.453 176.232 283.083 176.581 282.776C178.216 281.182 179.966 280.182 181.831 279.776C183.706 279.375 185.518 279.578 187.268 280.38C189.018 281.171 190.539 282.546 191.831 284.505C193.206 286.546 194.102 288.734 194.518 291.067C194.945 293.39 195.315 295.75 195.622 298.151Z" fill="#59A96A"/>
<path d="M226.958 280.713C228.635 282.437 229.609 284.312 229.874 286.338C230.15 288.354 229.755 290.213 228.687 291.921C227.614 293.63 225.947 294.88 223.687 295.671C221.864 296.296 219.968 296.734 217.999 296.984C216.025 297.223 213.999 297.541 211.916 297.942C212.541 298.124 213.135 298.317 213.708 298.525C214.291 298.723 214.864 298.859 215.437 298.942C216.588 299.166 217.755 299.333 218.937 299.442C220.114 299.557 221.26 299.791 222.374 300.15C223.968 300.682 224.937 301.578 225.27 302.838C225.604 304.104 225.166 305.333 223.958 306.525C223.343 307.192 222.567 307.786 221.624 308.296C220.692 308.812 219.781 309.109 218.895 309.192C214.822 309.598 211.385 309.078 208.583 307.63C205.791 306.187 203.729 304.14 202.395 301.484C201.062 298.817 200.525 295.838 200.791 292.546C200.968 290.505 201.322 288.546 201.854 286.671C202.395 284.786 203.239 282.973 204.395 281.234C205.854 278.973 207.734 277.338 210.041 276.338C212.359 275.338 214.843 275.109 217.499 275.65C221.275 276.317 224.427 278.005 226.958 280.713ZM221.104 287.088C221.187 287.088 221.281 287.062 221.395 287.005C221.505 286.937 221.65 286.854 221.833 286.755C220.984 285.562 219.927 284.713 218.666 284.213C217.4 283.703 216.213 283.598 215.104 283.9C214.088 284.208 213.338 284.729 212.854 285.463C212.364 286.203 211.984 287.078 211.708 288.088C213.359 287.911 214.958 287.744 216.499 287.588C218.052 287.437 219.588 287.27 221.104 287.088Z" fill="#59A96A"/>
<mask id="mask0_101_663" style="mask-type:luminance" maskUnits="userSpaceOnUse" x="58" y="36" width="127" height="135">
<path d="M58.1821 36.8594H184.849V170.859H58.1821V36.8594Z" fill="white"/>
</mask>
<g mask="url(#mask0_101_663)">
<path d="M94.1613 169.641C87.3435 167.286 82.8435 162.609 77.5623 158.714C75.3852 155.901 73.0102 153.281 70.6821 150.62C68.2915 148.151 66.8696 144.724 65.0154 141.714C61.4321 134.427 59.406 126.734 58.9425 118.635V102.036C59.1248 100.203 59.6717 98.7188 59.7498 96.776C58.7915 96.6667 60.2133 95.6979 60.1508 95.1563C59.8592 93.9167 60.8488 93.9635 60.5519 92.724C61.2498 91.3021 61.7915 89.8177 62.1769 88.276C62.9217 87.0104 63.4581 85.6615 63.7915 84.2292C64.6717 83.6458 65.2133 82.8385 65.4113 81.7969C66.104 81.276 67.005 80.9635 67.031 79.7708C68.6404 78.8177 69.4373 77.0521 70.6717 75.7292C78.2967 70.4427 86.531 66.3906 95.3696 63.5781C101.812 63.2969 108.156 63.9687 114.396 65.6042C111.536 57.6667 104.25 54.1562 100.635 46.9792C100.364 45.224 101.338 44.6979 101.849 43.7396C102.609 43.75 102.635 43.0365 102.656 42.3229C102.677 41.6042 102.708 40.8854 103.469 40.901C107.14 40.4635 107.745 43.1042 109.943 44.1406C111.568 45.75 112.62 47.9375 114.39 49.401C117.406 44.75 121.182 40.8385 125.729 37.6667C127.281 37.7656 128.776 37.4948 130.198 36.8594C131.521 36.875 132.87 36.8698 134.219 36.8594C139.916 36.8385 145.62 36.8125 149.63 38.474C151.182 44.7656 147.443 48.8646 146.39 53.8594C144.812 55.3854 143.781 57.4583 142.344 59.1198C140.604 60.4792 138.953 61.9427 137.078 63.1667C132.13 64.1615 126.396 63.2865 122.099 62.3646C122.177 64.1771 122.536 65.7031 123.719 66.4115C124.604 67.2812 127.036 66.6042 127.771 67.625C130.901 67.2448 134.005 66.7083 137.078 66.0052H152.463C156.802 66.8802 160.984 68.2292 165.01 70.0573C168.286 72.1198 171.39 74.4115 174.328 76.9375C176.672 80.7969 179.37 84.3073 180.797 89.0833C182.614 93.474 183.359 98.9375 184.036 104.464V121.469C183.182 128.12 181.291 134.464 178.37 140.5C176.234 146.594 171.911 150.5 168.656 155.474C165.719 157.391 163.401 159.938 160.557 161.953C157.948 164.068 154.526 165.365 151.656 167.219C149.068 167.734 145.979 167.755 143.958 168.839C142.713 168.714 141.495 168.443 140.318 168.026C139.854 169.047 138.526 169.203 137.078 169.24C136.807 168.031 134.37 168.974 134.239 167.62C133.635 167.656 133.13 167.448 132.729 167C132.265 166.479 131.693 166.281 131.005 166.406C129.922 165.708 128.76 165.224 127.505 164.943C126.25 164.667 124.989 164.609 123.719 164.781C120.328 165.573 118.015 167.448 115.62 169.24C113.182 169.094 112.302 170.505 110.359 170.859C104.995 170.422 98.8956 170.714 94.1613 169.641ZM104.281 155.88C106.427 156.688 105.729 159.167 105.495 161.547C106.505 161.542 107.432 161.266 108.281 160.724C109.286 160.068 110.38 159.802 111.573 159.927C112.583 158.245 112.838 155.797 115.614 155.88C116.396 155.844 116.614 156.37 116.833 156.891C117.052 157.411 117.271 157.938 118.047 157.906C121.963 157.401 126.646 155.844 131 157.099C132.12 156.411 133.333 156.005 134.646 155.885C136.156 156.016 137.64 156.281 139.099 156.693H143.547C147.416 155.563 152.005 155.156 155.698 153.854C158.224 151.948 160.521 149.786 162.578 147.38C162.474 146.271 162.609 145.193 162.979 144.146C166.547 140.016 170.291 136.068 171.484 129.568C171.854 126.161 172.969 123.5 173.505 120.255C173.729 116.729 174.135 113.219 174.719 109.729C173.26 102.688 171.234 96.2083 171.479 87.4635C170.995 86.1615 170.729 84.8125 170.677 83.4167C169.526 82.6823 169.203 81.1146 167.838 80.5833C167.719 79.7552 166.745 79.7865 166.63 78.9635C166.13 79.0156 166.031 78.6771 165.927 78.3333C165.812 77.9479 165.703 77.5573 165.01 77.75C160.359 74.9583 155.364 73.0677 150.031 72.0833C147.989 72.1146 145.948 72.0417 143.911 71.8594C140.677 71.4635 137.453 71.5365 134.239 72.0833C132.87 72.3281 133.594 74.6719 131.812 74.5156C130.823 74.5937 129.844 74.5208 128.875 74.2969C127.838 74.0573 126.797 73.9948 125.739 74.1094C125.156 75.4167 125.359 77.5052 125.338 79.3698C128.385 79.4479 129.786 77.8802 132.625 77.75C133.255 76.9479 134.036 76.3333 134.963 75.901C135.89 75.474 136.864 75.2812 137.89 75.3229C138.547 75.4948 139.099 75.8385 139.547 76.3594C139.989 76.875 140.245 77.474 140.312 78.1562C140.094 80.1823 139.286 81.9375 137.89 83.4167C133.63 84.9635 129.396 86.5365 124.927 87.8698H114.406C112.37 87.2083 109.87 87.0104 108.333 85.849C106.068 85.4167 104.073 84.7135 103.88 82.2031C103.953 80.0417 106.25 80.099 108.547 80.1615C109.021 80.1719 109.495 80.1875 109.953 80.1771C112.354 80.8021 114.781 80.9375 117.239 80.5781C117.12 78.1354 117.562 75.125 116.833 73.2969C113.166 72.2917 108.406 72.3854 103.64 72.4844C101.25 72.526 98.854 72.5781 96.5988 72.4844C94.5623 72.8854 92.5675 73.3073 90.5258 73.6979C89.9894 74.3646 88.7238 74.3281 88.0935 74.9115C87.2394 75.2708 86.8956 76.1406 85.6665 76.1198C83.156 78.474 78.9894 79.1615 77.5675 82.599C79.9477 82.2448 81.2394 82.9792 81.6196 84.6198C81.5623 87.401 79.7446 88.4115 79.1873 90.6927C78.1873 92.7813 77.3748 94.9427 76.7602 97.1719C77.2602 97.6771 77.7185 97.4844 78.3071 97.2917C78.8592 97.0781 79.4217 97.0417 79.9946 97.1719C80.4581 98.0625 81.3488 98.5156 81.6196 99.6042C80.4738 100.62 80.3331 102.635 79.1873 103.651C78.0519 107.781 76.8019 111.792 75.9477 116.203C76.3279 118.271 74.4269 121.203 76.354 122.271C77.0467 119.729 77.6769 117.12 80.8019 117.01C80.8956 117.771 81.8488 119.688 80.8019 120.25C80.9425 121.552 80.6717 122.766 79.9998 123.891C80.0623 125.26 79.9269 126.615 79.5988 127.943C80.1717 129.615 78.4477 131.068 79.5988 131.99C80.4894 129.911 80.2342 126.682 83.6456 127.135C84.6613 130.641 83.4269 135.229 82.8383 138.464C83.3956 138.99 83.2394 140.224 83.2446 141.302C82.5727 142.109 83.2758 144.302 82.4321 144.943C82.6821 146.172 81.9165 148.427 82.8331 148.99C83.5831 145.964 84.0415 142.635 88.0988 142.922C89.4373 143.333 89.4633 145.063 89.7185 146.563C90.6456 146.302 92.156 145.755 92.9581 146.563C93.1769 148.099 93.9373 149.094 93.7654 151.016C95.2706 150.635 95.8696 149.344 98.2185 149.802C99.7602 152.656 97.0102 157.484 99.0206 159.516C99.031 158.849 100.146 159.292 100.239 158.714C101.177 158.839 100.687 157.542 101.453 157.5C101.974 156.714 102.411 155.833 103.724 155.833C103.911 155.833 104.099 155.849 104.281 155.88ZM70.281 109.729C70.0623 110.615 69.2967 112.349 70.6821 112.563C70.0363 111.245 72.0519 109.729 70.3331 109.729H70.281ZM120.875 50.625C120.901 51.75 120.5 52.6979 119.672 53.4583C119.547 54.6875 118.104 54.599 118.052 55.8906C121.864 57.7396 127.698 57.5677 133.432 57.5052C135.823 56.2552 137.052 53.8437 139.104 52.2448C139.64 49.0052 142.088 47.6771 142.344 44.1458H128.166C127.312 44.5104 126.974 45.3802 125.734 45.3646C124.125 47.1198 122.896 49.2708 120.875 50.625ZM150.031 125.115C149.781 120.401 147.911 112.042 153.672 112.156C156.646 114.276 157.068 120.307 156.104 125.115C154.75 125.115 154.719 126.432 153.265 126.328C153.125 126.354 152.979 126.365 152.833 126.365C151.479 126.37 151.338 125.156 150.031 125.115ZM160.151 106.891C160.203 105.328 161.791 105.297 162.177 104.057C166.083 104.161 166.057 110.536 164.198 112.964C163.937 113 163.672 113.021 163.406 113.021C160.276 113.031 160.307 109.87 160.146 106.896L160.151 106.891ZM138.255 107.229C138.359 104.271 140.443 101.307 144.364 102.438C146.276 105.104 146.401 110.385 143.552 112.151C143.177 112.229 142.802 112.266 142.416 112.271C139.521 112.276 138.166 109.755 138.255 107.234V107.229Z" fill="#59A96A"/>
</g>
<mask id="mask1_101_663" style="mask-type:luminance" maskUnits="userSpaceOnUse" x="0" y="108" width="41" height="13">
<path d="M0 108.318H40.9688V120.287H0V108.318Z" fill="white"/>
</mask>
<g mask="url(#mask1_101_663)">
<mask id="mask2_101_663" style="mask-type:luminance" maskUnits="userSpaceOnUse" x="0" y="108" width="41" height="13">
<path d="M36.4167 120.229C11.0156 119.63 5.81769 118.729 3.21353 117.229C1.71353 116.432 0.713528 115.328 0.213528 114.229C-0.0833484 113.328 0.0156113 112.13 0.416653 111.328C0.713529 110.531 1.41665 109.63 2.21353 109.13C3.01561 108.63 4.11457 108.432 5.01561 108.432C5.91665 108.531 7.01561 108.932 7.61457 109.63C8.41665 110.531 9.21353 112.432 9.01561 113.63C8.81769 114.828 7.51561 116.432 6.51561 117.031C5.71353 117.531 4.51561 117.531 3.61457 117.328C2.81769 117.13 1.81769 116.63 1.21353 115.932C0.614569 115.229 0.114569 114.13 0.114569 113.229C0.0156106 112.328 0.213529 111.229 0.817694 110.432C1.51561 109.531 2.91665 108.729 4.51561 108.432C7.41665 108.031 12.4167 110.729 17.2135 111.229C23.1146 111.932 34.0156 110.328 37.5156 111.432C38.9167 111.828 39.5156 112.432 40.1146 113.229C40.7135 114.031 41.0156 115.328 40.9167 116.328C40.7135 117.328 40.1146 118.531 39.4167 119.13C38.6146 119.828 36.4167 120.229 36.4167 120.229Z" fill="white"/>
</mask>
<g mask="url(#mask2_101_663)">
<path d="M-3.88544 104.432H44.9323V124.328H-3.88544V104.432Z" fill="#59A96A"/>
</g>
</g>
<mask id="mask3_101_663" style="mask-type:luminance" maskUnits="userSpaceOnUse" x="15" y="54" width="29" height="19">
<path d="M15.9741 54.3542H43.5991V72.4688H15.9741V54.3542Z" fill="white"/>
</mask>
<g mask="url(#mask3_101_663)">
<mask id="mask4_101_663" style="mask-type:luminance" maskUnits="userSpaceOnUse" x="15" y="54" width="29" height="19">
<path d="M37.3179 72.2293C16.4168 61.1303 16.2137 60.4324 16.0158 59.5314C15.9168 58.6303 16.1148 57.4324 16.6148 56.6303C17.0158 55.9324 17.9168 55.1303 18.7137 54.7293C19.6148 54.4324 20.7137 54.2293 21.6148 54.5314C22.7137 54.9324 24.2137 56.3282 24.7137 57.3282C25.1148 58.2293 25.1148 59.3282 24.8179 60.2293C24.5158 61.1303 23.9168 62.0314 23.1148 62.5314C22.1148 63.1303 20.1148 63.4324 18.9168 63.1303C18.0158 62.8282 17.2137 62.1303 16.7137 61.3282C16.2137 60.5314 15.9168 59.4324 16.0158 58.5314C16.1148 57.6303 16.4168 56.5314 17.1148 55.9324C18.0158 55.1303 19.3179 54.3282 21.1148 54.4324C25.4168 54.7293 40.1148 62.7293 42.6148 65.2293C43.3179 66.0314 43.4168 66.4324 43.5158 67.2293C43.6148 68.1303 43.5158 69.4324 43.0158 70.3282C42.5158 71.2293 41.5158 72.0314 40.5158 72.3282C39.6148 72.6303 37.3179 72.2293 37.3179 72.2293Z" fill="white"/>
</mask>
<g mask="url(#mask4_101_663)">
<path d="M12.0158 50.4324H47.5627V76.4324H12.0158V50.4324Z" fill="#59A96A"/>
</g>
</g>
<mask id="mask5_101_663" style="mask-type:luminance" maskUnits="userSpaceOnUse" x="195" y="52" width="39" height="25">
<path d="M195.13 52.2917H233.146V76.1928H195.13V52.2917Z" fill="white"/>
</mask>
<g mask="url(#mask5_101_663)">
<mask id="mask6_101_663" style="mask-type:luminance" maskUnits="userSpaceOnUse" x="195" y="52" width="39" height="25">
<path d="M197.615 67.6303C229.516 52.1303 230.714 52.6303 231.615 53.4324C232.615 54.3283 233.214 56.2293 233.016 57.4324C232.818 58.6303 231.516 60.2293 230.516 60.8283C229.714 61.3283 228.615 61.3283 227.714 61.1303C226.818 60.9324 225.818 60.4324 225.214 59.7293C224.516 58.7293 223.917 56.8283 224.214 55.6303C224.615 54.4324 225.917 52.9324 227.115 52.5314C228.318 52.1303 230.318 52.4324 231.318 53.1303C232.318 53.8283 233.016 55.7293 233.115 56.9324C233.115 57.9324 232.714 58.7293 232.016 59.6303C231.016 60.9324 229.214 61.9324 226.714 63.5314C221.318 66.6303 205.214 75.3283 200.615 76.0314C199.115 76.3283 198.318 76.1303 197.516 75.6303C196.615 75.1303 195.714 74.1303 195.417 73.2293C195.016 72.2293 195.115 70.9324 195.417 70.0314C195.818 69.0314 197.615 67.6303 197.615 67.6303Z" fill="white"/>
</mask>
<g mask="url(#mask6_101_663)">
<path d="M191.417 48.3282H237.235V80.0314H191.417V48.3282Z" fill="#59A96A"/>
</g>
</g>
<mask id="mask7_101_663" style="mask-type:luminance" maskUnits="userSpaceOnUse" x="200" y="108" width="35" height="12">
<path d="M200.448 108.49H234.901V119.287H200.448V108.49Z" fill="white"/>
</mask>
<g mask="url(#mask7_101_663)">
<mask id="mask8_101_663" style="mask-type:luminance" maskUnits="userSpaceOnUse" x="200" y="108" width="35" height="12">
<path d="M204.917 109.932C224.515 109.63 228.515 108.031 230.917 108.63C232.515 109.031 233.713 110.13 234.318 111.13C234.818 111.932 235.015 113.031 234.713 113.932C234.417 115.031 233.114 116.63 232.015 117.229C231.213 117.63 230.114 117.729 229.213 117.432C228.114 117.031 226.515 115.63 226.015 114.63C225.614 113.729 225.713 112.63 226.015 111.729C226.318 110.828 226.818 109.932 227.713 109.432C228.713 108.828 230.713 108.531 231.917 108.828C232.818 109.13 233.614 109.932 234.114 110.63C234.614 111.432 234.917 112.531 234.818 113.432C234.614 114.63 233.713 116.13 232.515 117.031C231.015 118.031 228.917 118.229 226.213 118.63C221.213 119.229 208.818 119.531 204.917 118.932C203.417 118.63 202.713 118.432 201.917 117.729C201.213 117.13 200.614 115.932 200.515 114.932C200.318 113.932 200.614 112.63 201.213 111.828C202.015 110.932 204.917 109.932 204.917 109.932Z" fill="white"/>
</mask>
<g mask="url(#mask8_101_663)">
<path d="M196.516 104.63H238.906V122.932H196.516V104.63Z" fill="#59A96A"/>
</g>
</g>
<mask id="mask9_101_663" style="mask-type:luminance" maskUnits="userSpaceOnUse" x="192" y="145" width="33" height="16">
<path d="M192.047 145.349H224.375V160.313H192.047V145.349Z" fill="white"/>
</mask>
<g mask="url(#mask9_101_663)">
<mask id="mask10_101_663" style="mask-type:luminance" maskUnits="userSpaceOnUse" x="192" y="145" width="33" height="16">
<path d="M196.714 145.432C214.318 148.229 220.615 150.531 222.714 152.229C223.615 153.031 224.016 153.828 224.214 154.729C224.417 155.531 224.318 156.729 223.917 157.531C223.615 158.328 222.818 159.229 222.016 159.63C221.214 160.13 220.115 160.432 219.214 160.229C218.016 159.932 216.318 158.828 215.818 157.729C215.214 156.531 215.417 154.531 215.917 153.531C216.318 152.63 217.214 151.932 218.115 151.63C219.214 151.229 221.214 151.432 222.318 151.932C223.115 152.432 223.714 153.328 224.016 154.229C224.417 155.031 224.417 156.229 224.115 157.13C223.818 157.932 223.115 158.932 222.417 159.432C221.714 159.932 220.917 160.229 219.615 160.229C217.115 160.13 212.016 156.932 207.818 155.828C203.516 154.729 196.615 155.229 194.214 153.828C193.115 153.13 192.516 152.229 192.214 151.328C191.917 150.432 192.115 149.031 192.417 148.13C192.714 147.432 193.115 146.828 193.714 146.432C194.516 145.932 196.714 145.432 196.714 145.432Z" fill="white"/>
</mask>
<g mask="url(#mask10_101_663)">
<path d="M188.214 141.432H228.203V164.229H188.214V141.432Z" fill="#59A96A"/>
</g>
</g>
<mask id="mask11_101_663" style="mask-type:luminance" maskUnits="userSpaceOnUse" x="2" y="147" width="39" height="18">
<path d="M2.32275 147.537H40.0155V164.823H2.32275V147.537Z" fill="white"/>
</mask>
<g mask="url(#mask11_101_663)">
<mask id="mask12_101_663" style="mask-type:luminance" maskUnits="userSpaceOnUse" x="2" y="147" width="38" height="18">
<path d="M36.0155 156.63C11.8175 160.932 11.7134 160.328 11.4165 160.432C10.9165 160.531 10.9165 162.432 10.3175 163.13C9.71337 163.828 8.81753 164.432 7.91649 164.63C7.01545 164.828 5.91649 164.729 5.01545 164.328C4.01545 163.729 2.71337 162.229 2.41649 160.932C2.21337 159.729 3.01545 157.828 3.81753 156.932C4.41649 156.229 5.41649 155.828 6.31753 155.729C7.31753 155.63 8.41649 155.828 9.21337 156.328C9.91649 156.828 10.7134 157.63 11.0154 158.531C11.4165 159.328 11.5154 160.432 11.2134 161.328C10.8175 162.432 9.51545 164.031 8.31753 164.432C7.21337 164.828 5.21337 164.531 4.21337 163.828C3.21337 163.031 2.21337 161.432 2.41649 160.031C2.71337 157.932 5.41649 154.828 8.61441 152.932C14.1144 149.828 30.6144 147.531 35.1144 147.63C36.6144 147.729 37.3175 147.932 38.1144 148.432C39.0155 149.031 39.8175 150.13 39.9165 151.13C40.1144 152.229 39.6144 154.229 38.9165 155.13C38.2134 155.932 36.0155 156.63 36.0155 156.63Z" fill="white"/>
</mask>
<g mask="url(#mask12_101_663)">
<path d="M-1.5835 143.63H44.0207V168.63H-1.5835V143.63Z" fill="#59A96A"/>
</g>
</g>
<mask id="mask13_101_663" style="mask-type:luminance" maskUnits="userSpaceOnUse" x="61" y="15" width="23" height="33">
<path d="M61.7915 15.0938H83.3488V47.1458H61.7915V15.0938Z" fill="white"/>
</mask>
<g mask="url(#mask13_101_663)">
<mask id="mask14_101_663" style="mask-type:luminance" maskUnits="userSpaceOnUse" x="61" y="15" width="23" height="33">
<path d="M74.6144 44.4323C61.8175 18.4323 62.2133 17.7292 62.7133 17.0312C63.3175 16.3281 64.2133 15.6302 65.1144 15.4323C66.2133 15.1302 68.3175 15.5312 69.2133 16.2292C70.0154 16.8281 70.6144 17.7292 70.7133 18.6302C70.9165 19.8281 70.4165 21.8281 69.7133 22.7292C69.1144 23.5312 68.1144 23.9323 67.2133 24.1302C66.3175 24.3281 65.1144 24.1302 64.3175 23.7292C63.5154 23.3281 62.7133 22.5312 62.3175 21.6302C61.9165 20.8281 61.7133 19.7292 62.0154 18.8281C62.3175 17.7292 63.6144 16.1302 64.6144 15.5312C65.5154 15.1302 66.6144 15.1302 67.5154 15.3281C68.4165 15.6302 69.0154 15.9323 69.9165 16.9323C72.2133 19.3281 76.7133 27.6302 79.0154 32.1302C80.7133 35.4323 82.5154 38.7292 83.0154 41.0312C83.3175 42.3281 83.4165 43.2292 83.1144 44.2292C82.7133 45.1302 81.9165 46.2292 81.0154 46.6302C79.9165 47.1302 77.9165 47.2292 76.8175 46.7292C75.8175 46.3281 74.6144 44.4323 74.6144 44.4323Z" fill="white"/>
</mask>
<g mask="url(#mask14_101_663)">
<path d="M57.9165 11.3281H87.1144V50.6823H57.9165V11.3281Z" fill="#59A96A"/>
</g>
</g>
<mask id="mask15_101_663" style="mask-type:luminance" maskUnits="userSpaceOnUse" x="128" y="0" width="11" height="30">
<path d="M128.453 0H138.646V29.3906H128.453V0Z" fill="white"/>
</mask>
<g mask="url(#mask15_101_663)">
<mask id="mask16_101_663" style="mask-type:luminance" maskUnits="userSpaceOnUse" x="128" y="0" width="11" height="30">
<path d="M128.516 24.8281C128.818 7.03124 129.115 3.82812 130.115 2.22916C130.714 1.22916 131.417 0.729161 132.318 0.328119C133.115 0.0312432 134.318 0.0312435 135.214 0.229161C136.016 0.531244 137.016 1.22916 137.516 1.93229C138.115 2.6302 138.516 3.72916 138.417 4.6302C138.318 5.82812 137.318 7.6302 136.417 8.32812C135.615 8.93229 134.516 9.22916 133.615 9.03124C132.417 8.93229 130.615 7.93229 130.016 6.82812C129.417 5.72916 129.318 3.72916 129.818 2.6302C130.417 1.53124 132.115 0.432287 133.214 0.130202C134.214 -0.0677135 135.318 0.229161 136.115 0.630203C136.917 1.1302 137.516 1.53124 138.016 2.72916C139.318 6.1302 138.318 20.9323 137.516 24.8281C137.214 26.3281 137.016 27.1302 136.417 27.8281C135.714 28.5312 134.516 29.2292 133.516 29.3281C132.516 29.4323 131.214 29.2292 130.417 28.5312C129.516 27.8281 128.516 24.8281 128.516 24.8281Z" fill="white"/>
</mask>
<g mask="url(#mask16_101_663)">
<path d="M124.516 -3.86981H142.516V33.3281H124.516V-3.86981Z" fill="#59A96A"/>
</g>
</g>
<mask id="mask17_101_663" style="mask-type:luminance" maskUnits="userSpaceOnUse" x="137" y="126" width="28" height="16">
<path d="M137.5 126.901H164.005V141.146H137.5V126.901Z" fill="white"/>
</mask>
<g mask="url(#mask17_101_663)">
<mask id="mask18_101_663" style="mask-type:luminance" maskUnits="userSpaceOnUse" x="137" y="126" width="27" height="16">
<path d="M139.318 135.828C155.016 136.932 160.714 126.729 162.615 126.932C163.318 126.932 164.016 128.13 163.917 128.63C163.818 129.13 162.615 130.031 162.115 129.828C161.615 129.729 161.016 128.031 161.214 127.531C161.417 127.13 162.516 126.828 162.917 126.932C163.417 127.13 163.917 127.828 163.917 128.432C164.016 129.729 162.214 131.932 160.818 133.63C158.818 135.932 155.115 139.531 152.615 140.63C151.016 141.328 149.818 141.13 147.917 141.031C145.318 140.729 139.714 139.828 138.318 138.63C137.714 138.13 137.417 137.229 137.615 136.828C137.818 136.328 139.318 135.828 139.318 135.828Z" fill="white"/>
</mask>
<g mask="url(#mask18_101_663)">
<path d="M133.615 122.932H167.974V145.031H133.615V122.932Z" fill="#59A96A"/>
</g>
</g>
<mask id="mask19_101_663" style="mask-type:luminance" maskUnits="userSpaceOnUse" x="167" y="17" width="27" height="28">
<path d="M167.188 17.9011H193.406V44.1251H167.188V17.9011Z" fill="white"/>
</mask>
<g mask="url(#mask19_101_663)">
<mask id="mask20_101_663" style="mask-type:luminance" maskUnits="userSpaceOnUse" x="167" y="17" width="27" height="28">
<path d="M168.318 36.6303C188.318 17.6303 189.115 17.8282 190.016 18.0313C190.917 18.2293 191.818 18.9324 192.417 19.6303C192.917 20.3282 193.318 21.4324 193.318 22.3282C193.318 23.2293 193.016 24.3282 192.516 25.0313C191.917 25.8282 191.016 26.5313 190.115 26.7293C189.016 26.9324 186.917 26.5313 186.016 25.8282C185.214 25.3282 184.615 24.3282 184.516 23.4324C184.318 22.2293 184.714 20.2293 185.516 19.3282C186.417 18.4324 188.318 17.8282 189.516 17.9324C190.516 18.0313 191.417 18.6303 192.115 19.2293C192.714 19.9324 193.214 20.9324 193.318 21.8282C193.417 22.7293 193.417 23.4324 192.714 24.6303C190.714 28.4324 177.318 42.1303 173.318 43.8282C172.016 44.3282 171.016 44.0313 170.115 43.8282C169.417 43.6303 168.818 43.1303 168.318 42.6303C167.818 41.8282 167.214 40.6303 167.214 39.6303C167.214 38.6303 168.318 36.6303 168.318 36.6303Z" fill="white"/>
</mask>
<g mask="url(#mask20_101_663)">
<path d="M163.214 13.9324H197.38V47.8282H163.214V13.9324Z" fill="#59A96A"/>
</g>
</g>
</svg>
