<?xml version="1.0" encoding="UTF-8"?>
<svg width="239px" height="121px" viewBox="0 0 239 121" version="1.1" xmlns="http://www.w3.org/2000/svg" xmlns:xlink="http://www.w3.org/1999/xlink">
    <title>Group</title>
    <g id="Page-1" stroke="none" stroke-width="1" fill="none" fill-rule="evenodd">
        <g id="Group" transform="translate(0.060546, 0.728480)" fill="#FFFFFF" fill-rule="nonzero">
            <path d="M33.2463539,38.1515199 C34.0380539,41.3075199 33.7880539,44.1255199 32.4963539,46.6095199 C31.2151539,49.0995199 29.1109539,50.8285199 26.1838539,51.7975199 C22.8922539,52.9535199 18.9390539,53.6205199 14.3297539,53.7975199 C12.2463539,53.8805199 10.3922539,53.4015199 8.76725385,52.3595199 C7.15263385,51.3185199 5.85575385,50.2655199 4.87138385,49.1935199 C3.81409385,48.0005199 3.16304385,46.7135199 2.91304385,45.3385199 C2.67346385,43.9635199 2.89221385,42.7245199 3.55888385,41.6095199 C4.61096385,39.7505199 6.36096385,38.8185199 8.80885385,38.8185199 C9.47555385,38.8185199 10.1422539,38.8905199 10.8088539,39.0265199 C11.0692539,39.1095199 11.3557539,39.1875199 11.6630539,39.2555199 C11.9807539,39.3285199 12.2724539,39.4015199 12.5380539,39.4845199 C13.7307539,39.8335199 14.9442539,40.1205199 16.1838539,40.3385199 C17.4338539,40.5625199 18.7463539,40.4795199 20.1213539,40.0885199 L22.3297539,39.4225199 L21.9963539,38.6935199 C21.4130539,37.3185199 20.5849539,36.3125199 19.5172539,35.6725199 C18.4599539,35.0215199 17.3557539,34.5155199 16.2047539,34.1515199 C11.6317539,32.7765199 7.50159385,30.2295199 3.80888385,26.5055199 C1.10054385,23.7555199 -0.165076148,20.6725199 0.0172138516,17.2555199 C0.194293852,13.8805199 1.73075385,11.0215199 4.62138385,8.67251989 C10.1213539,4.14651989 16.3505539,2.70351989 23.3088539,4.33851989 C26.4182539,5.04751989 28.7307539,6.62551989 30.2463539,9.06851989 C30.8140539,10.0835199 31.1474539,11.1935199 31.2463539,12.4015199 C31.2463539,12.7505199 31.1942539,13.1465199 31.1005539,13.5885199 C31.0172539,14.0365199 30.8192539,14.3705199 30.5172539,14.5885199 C29.9755539,14.9955199 29.1474539,14.9745199 28.0380539,14.5265199 C26.7047539,13.9845199 25.0849539,13.4845199 23.1838539,13.0265199 C21.2776539,12.5575199 19.2567539,12.5625199 17.1213539,13.0475199 C16.1057539,13.2715199 15.1213539,13.6045199 14.1630539,14.0475199 C13.2047539,14.4955199 12.3297539,14.9635199 11.5380539,15.4635199 C10.6057539,15.9955199 10.1422539,16.6825199 10.1422539,17.5265199 C10.1422539,18.3595199 10.5849539,19.0685199 11.4755539,19.6515199 L12.9338539,20.5055199 C14.1265539,21.2135199 15.3349539,21.9165199 16.5588539,22.6095199 C17.7776539,23.2915199 19.0380539,23.9015199 20.3297539,24.4435199 C27.4234539,27.2765199 31.7307539,31.8495199 33.2463539,38.1515199 Z" id="Path"></path>
            <path d="M59.6561539,22.9015199 C61.6561539,23.2245199 63.3853539,23.9535199 64.8436539,25.0885199 C66.3020539,26.2135199 67.3853539,27.6205199 68.0936539,29.2975199 C68.8124539,30.9795199 69.0155539,32.8175199 68.6978539,34.8175199 C68.3905539,37.2245199 67.7603539,39.4585199 66.8020539,41.5265199 C65.8541539,43.5835199 64.5155539,45.4535199 62.7811539,47.1305199 C59.9478539,49.8805199 56.5103539,51.2345199 52.4686539,51.1925199 C51.0936539,50.8905199 49.7030539,50.6205199 48.3020539,50.3805199 C46.8957539,50.1305199 45.5364539,49.7865199 44.2186539,49.3385199 C41.5936539,48.4115199 39.6822539,46.9225199 38.4895539,44.8805199 C37.2916539,42.8385199 36.8905539,40.4425199 37.2811539,37.6925199 C37.7655539,34.4425199 38.8645539,31.6095199 40.5728539,29.1925199 C42.2811539,26.7765199 44.5364539,24.7295199 47.3436539,23.0475199 C49.7291539,21.6205199 52.3020539,21.2865199 55.0520539,22.0475199 C55.8124539,22.2715199 56.5832539,22.4535199 57.3645539,22.5885199 C58.1405539,22.7135199 58.9061539,22.8175199 59.6561539,22.9015199 Z M57.7186539,35.7555199 C58.2603539,34.1615199 57.8645539,32.8965199 56.5311539,31.9635199 C55.2811539,31.0785199 54.3228539,30.5155199 53.6561539,30.2765199 C52.9895539,30.0265199 52.3905539,30.1405199 51.8645539,30.6095199 C51.3332539,31.0675199 50.6457539,31.9165199 49.8020539,33.1515199 C49.5364539,33.5575199 49.3124539,33.8905199 49.1353539,34.1515199 C47.8436539,36.4165199 47.4374539,38.0055199 47.9270539,38.9225199 C48.4270539,39.8285199 49.9582539,40.3495199 52.5311539,40.4845199 C53.8645539,40.5265199 54.8905539,40.2085199 55.6145539,39.5265199 C56.3489539,38.8335199 57.0520539,37.5785199 57.7186539,35.7555199 Z" id="Shape"></path>
            <path d="M82.4070539,11.6515199 C82.7091539,16.0155199 83.0164539,20.3695199 83.3237539,24.7135199 C83.6414539,29.0625199 83.8914539,33.4115199 84.0737539,37.7555199 C84.1153539,39.1715199 84.0216539,40.6195199 83.8028539,42.0885199 C83.5789539,43.5465199 83.2924539,44.9845199 82.9487539,46.4015199 C82.6258539,47.6925199 82.0112539,48.6615199 81.0945539,49.2965199 C80.1883539,49.9375199 79.2299539,50.2555199 78.2195539,50.2555199 C77.1466539,50.2135199 76.2039539,49.8385199 75.3862539,49.1305199 C74.5633539,48.4215199 73.9747539,47.4215199 73.6153539,46.1305199 C73.3914539,45.3385199 73.2247539,44.5365199 73.1153539,43.7135199 C73.0008539,42.8955199 72.9278539,42.0625199 72.8862539,41.2135199 C72.8862539,40.4635199 72.8914539,39.1095199 72.9070539,37.1515199 C72.9331539,35.1925199 72.9799539,32.9425199 73.0528539,30.4015199 C73.1206539,27.8495199 73.1987539,25.2445199 73.2820539,22.5885199 C73.3758539,19.9215199 73.4799539,17.4535199 73.5945539,15.1715199 C73.7039539,12.8805199 73.8237539,11.0885199 73.9487539,9.79651989 C74.0008539,9.21351989 74.0945539,8.62551989 74.2195539,8.02651989 C74.3549539,7.43251989 74.5789539,6.93251989 74.8862539,6.52651989 C75.2872539,6.04151989 75.7924539,5.55751989 76.4070539,5.06751989 C77.0320539,4.58351989 77.6153539,4.33851989 78.1570539,4.33851989 C78.7247539,4.38051989 79.3445539,4.64051989 80.0112539,5.10951989 C80.6778539,5.56751989 81.1414539,6.06751989 81.4070539,6.60951989 C81.7664539,7.35951989 82.0112539,8.18251989 82.1362539,9.06751989 C82.2716539,9.95851989 82.3653539,10.8175199 82.4070539,11.6515199 Z" id="Path"></path>
            <path d="M115.219454,21.9845199 C116.896454,23.7085199 117.870454,25.5835199 118.136454,27.6095199 C118.412454,29.6255199 118.016454,31.4845199 116.948454,33.1925199 C115.875454,34.9015199 114.209454,36.1515199 111.948454,36.9425199 C110.125454,37.5675199 108.229454,38.0055199 106.261454,38.2555199 C104.287454,38.4945199 102.261454,38.8125199 100.177454,39.2135199 C100.802454,39.3955199 101.396454,39.5885199 101.969454,39.7965199 C102.552454,39.9945199 103.125454,40.1305199 103.698454,40.2135199 C104.849454,40.4375199 106.016454,40.6045199 107.198454,40.7135199 C108.375454,40.8285199 109.521454,41.0625199 110.636454,41.4215199 C112.229454,41.9535199 113.198454,42.8495199 113.532454,44.1095199 C113.865454,45.3755199 113.427454,46.6045199 112.219454,47.7965199 C111.604454,48.4635199 110.828454,49.0575199 109.886454,49.5675199 C108.953454,50.0835199 108.042454,50.3805199 107.157454,50.4635199 C103.084454,50.8695199 99.6464539,50.3495199 96.8444539,48.9015199 C94.0528539,47.4585199 91.9903539,45.4115199 90.6569539,42.7555199 C89.3236539,40.0885199 88.7871539,37.1095199 89.0528539,33.8175199 C89.2298539,31.7765199 89.5840539,29.8175199 90.1153539,27.9425199 C90.6569539,26.0575199 91.5007539,24.2445199 92.6569539,22.5055199 C94.1153539,20.2445199 95.9955539,18.6095199 98.3024539,17.6095199 C100.620454,16.6095199 103.104454,16.3805199 105.761454,16.9215199 C109.537454,17.5885199 112.688454,19.2765199 115.219454,21.9845199 Z M109.365454,28.3595199 C109.448454,28.3595199 109.542454,28.3335199 109.657454,28.2765199 C109.766454,28.2085199 109.912454,28.1255199 110.094454,28.0265199 C109.245454,26.8335199 108.188454,25.9845199 106.927454,25.4845199 C105.662454,24.9745199 104.474454,24.8695199 103.365454,25.1715199 C102.349454,25.4795199 101.599454,26.0005199 101.115454,26.7345199 C100.625454,27.4745199 100.245454,28.3495199 99.9694539,29.3595199 C101.620454,29.1825199 103.219454,29.0155199 104.761454,28.8595199 C106.313454,28.7085199 107.849454,28.5415199 109.365454,28.3595199 Z" id="Shape"></path>
            <path d="M133.111454,25.7765199 C133.111454,26.5265199 133.111454,27.6255199 133.111454,29.0675199 C133.111454,30.5155199 133.096454,32.0575199 133.070454,33.6925199 C133.054454,35.3335199 133.033454,36.8175199 133.007454,38.1515199 C132.992454,39.4845199 132.986454,40.4165199 132.986454,40.9425199 C132.945454,41.6095199 132.888454,42.2765199 132.820454,42.9425199 C132.747454,43.6095199 132.653454,44.2765199 132.528454,44.9425199 C132.205454,46.7245199 131.580454,48.0885199 130.653454,49.0475199 C129.721454,49.9945199 128.658454,50.4225199 127.466454,50.3385199 C126.257454,50.2445199 125.205454,49.6875199 124.320454,48.6725199 C123.445454,47.6465199 123.091454,46.2715199 123.257454,44.5475199 C123.533454,41.2555199 123.934454,37.9845199 124.466454,34.7345199 C124.992454,31.4745199 125.549454,28.1925199 126.132454,24.9015199 C126.309454,24.0155199 126.742454,23.3075199 127.424454,22.7765199 C128.117454,22.2505199 128.971454,22.0475199 129.986454,22.1725199 C131.013454,22.2715199 131.778454,22.6665199 132.278454,23.3595199 C132.789454,24.0415199 133.070454,24.8495199 133.111454,25.7765199 Z M128.132454,16.4425199 C127.059454,16.4015199 126.158454,15.9745199 125.424454,15.1515199 C124.700454,14.3335199 124.341454,13.3495199 124.341454,12.1925199 C124.341454,11.0415199 124.736454,10.0575199 125.528454,9.23451989 C126.330454,8.41651989 127.309454,8.00551989 128.466454,8.00551989 C129.559454,8.00551989 130.497454,8.39651989 131.278454,9.17251989 C132.054454,9.93751989 132.424454,10.9015199 132.382454,12.0675199 C132.382454,13.2655199 131.950454,14.3075199 131.091454,15.1925199 C130.226454,16.0835199 129.242454,16.5005199 128.132454,16.4425199 Z" id="Shape"></path>
            <path d="M147.622454,11.6515199 C147.925454,16.0155199 148.232454,20.3695199 148.539454,24.7135199 C148.857454,29.0625199 149.107454,33.4115199 149.289454,37.7555199 C149.331454,39.1715199 149.237454,40.6195199 149.018454,42.0885199 C148.794454,43.5465199 148.508454,44.9845199 148.164454,46.4015199 C147.841454,47.6925199 147.227454,48.6615199 146.310454,49.2965199 C145.404454,49.9375199 144.445454,50.2555199 143.435454,50.2555199 C142.362454,50.2135199 141.419454,49.8385199 140.602454,49.1305199 C139.779454,48.4215199 139.190454,47.4215199 138.831454,46.1305199 C138.607454,45.3385199 138.440454,44.5365199 138.331454,43.7135199 C138.216454,42.8955199 138.143454,42.0625199 138.102454,41.2135199 C138.102454,40.4635199 138.107454,39.1095199 138.122454,37.1515199 C138.148454,35.1925199 138.195454,32.9425199 138.268454,30.4015199 C138.336454,27.8495199 138.414454,25.2445199 138.497454,22.5885199 C138.591454,19.9215199 138.695454,17.4535199 138.810454,15.1715199 C138.919454,12.8805199 139.039454,11.0885199 139.164454,9.79651989 C139.216454,9.21351989 139.310454,8.62551989 139.435454,8.02651989 C139.570454,7.43251989 139.794454,6.93251989 140.102454,6.52651989 C140.503454,6.04151989 141.008454,5.55751989 141.622454,5.06751989 C142.247454,4.58351989 142.831454,4.33851989 143.372454,4.33851989 C143.940454,4.38051989 144.560454,4.64051989 145.227454,5.10951989 C145.893454,5.56751989 146.357454,6.06751989 146.622454,6.60951989 C146.982454,7.35951989 147.227454,8.18251989 147.352454,9.06751989 C147.487454,9.95851989 147.581454,10.8175199 147.622454,11.6515199 Z" id="Path"></path>
            <path d="M204.534454,5.67251989 C204.576454,12.1045199 204.602454,18.5625199 204.617454,25.0475199 C204.644454,31.5215199 204.638454,38.0005199 204.597454,44.4845199 C204.597454,46.9165199 203.878454,48.5885199 202.451454,49.5055199 C201.034454,50.4115199 199.170454,50.4845199 196.867454,49.7345199 C196.519454,49.5995199 196.097454,49.5785199 195.597454,49.6725199 C195.107454,49.7555199 194.690454,49.8705199 194.347454,50.0055199 C192.706454,50.7135199 191.034454,51.2035199 189.326454,51.4635199 C187.617454,51.7295199 185.894454,51.6615199 184.159454,51.2555199 C181.628454,50.6875199 179.482454,49.5835199 177.722454,47.9425199 C175.972454,46.2915199 174.727454,44.2865199 173.992454,41.9225199 C173.269454,39.5475199 173.128454,36.9585199 173.576454,34.1515199 C173.753454,32.9165199 174.045454,31.6725199 174.451454,30.4225199 C176.045454,25.6305199 178.472454,22.4375199 181.722454,20.8385199 C184.982454,19.2455199 189.013454,19.2655199 193.805454,20.9015199 C194.024454,21.0005199 194.269454,21.0835199 194.534454,21.1515199 C194.810454,21.2085199 195.123454,21.2865199 195.472454,21.3805199 C195.649454,18.6725199 195.826454,16.0005199 195.992454,13.3595199 C196.170454,10.7245199 196.352454,8.08851989 196.534454,5.46351989 C196.576454,4.97951989 196.597454,4.47451989 196.597454,3.94251989 C196.597454,3.40151989 196.732454,2.95851989 197.013454,2.60951989 C197.357454,2.02651989 197.810454,1.45851989 198.367454,0.901519891 C198.920454,0.349519891 199.461454,0.0475198914 199.992454,0.00551989139 C200.617454,-0.0364801086 201.269454,0.161519891 201.951454,0.588519891 C202.644454,1.00551989 203.211454,1.47951989 203.659454,2.00551989 C204.019454,2.41151989 204.253454,2.95851989 204.367454,3.65151989 C204.477454,4.33351989 204.534454,5.00551989 204.534454,5.67251989 Z M193.867454,38.5475199 C194.045454,38.5055199 194.201454,38.3545199 194.326454,38.0885199 C194.461454,37.8285199 194.560454,37.5835199 194.617454,37.3595199 C194.659454,36.3335199 194.347454,35.2975199 193.680454,34.2555199 C193.013454,33.2135199 192.159454,32.3545199 191.117454,31.6725199 C190.076454,30.9795199 189.039454,30.6515199 188.013454,30.6925199 C187.748454,30.7345199 187.414454,30.8385199 187.013454,31.0055199 C186.623454,31.1615199 186.378454,31.3285199 186.284454,31.5055199 C185.935454,32.5625199 185.581454,33.6095199 185.222454,34.6515199 C184.873454,35.6925199 184.628454,36.7715199 184.492454,37.8805199 C184.409454,38.6875199 184.649454,39.3125199 185.222454,39.7555199 C185.805454,40.2035199 186.539454,40.4425199 187.430454,40.4845199 C188.482454,40.1665199 189.555454,39.8545199 190.638454,39.5475199 C191.732454,39.2455199 192.810454,38.9115199 193.867454,38.5475199 Z" id="Shape"></path>
            <path d="M235.802454,21.9845199 C237.479454,23.7085199 238.453454,25.5835199 238.719454,27.6095199 C238.995454,29.6255199 238.599454,31.4845199 237.531454,33.1925199 C236.458454,34.9015199 234.792454,36.1515199 232.531454,36.9425199 C230.708454,37.5675199 228.812454,38.0055199 226.844454,38.2555199 C224.870454,38.4945199 222.844454,38.8125199 220.760454,39.2135199 C221.385454,39.3955199 221.979454,39.5885199 222.552454,39.7965199 C223.135454,39.9945199 223.708454,40.1305199 224.281454,40.2135199 C225.432454,40.4375199 226.599454,40.6045199 227.781454,40.7135199 C228.958454,40.8285199 230.104454,41.0625199 231.219454,41.4215199 C232.812454,41.9535199 233.781454,42.8495199 234.115454,44.1095199 C234.448454,45.3755199 234.010454,46.6045199 232.802454,47.7965199 C232.187454,48.4635199 231.411454,49.0575199 230.469454,49.5675199 C229.536454,50.0835199 228.625454,50.3805199 227.740454,50.4635199 C223.667454,50.8695199 220.229454,50.3495199 217.427454,48.9015199 C214.635454,47.4585199 212.573454,45.4115199 211.240454,42.7555199 C209.906454,40.0885199 209.370454,37.1095199 209.635454,33.8175199 C209.812454,31.7765199 210.167454,29.8175199 210.698454,27.9425199 C211.240454,26.0575199 212.083454,24.2445199 213.240454,22.5055199 C214.698454,20.2445199 216.578454,18.6095199 218.885454,17.6095199 C221.203454,16.6095199 223.687454,16.3805199 226.344454,16.9215199 C230.120454,17.5885199 233.271454,19.2765199 235.802454,21.9845199 Z M229.948454,28.3595199 C230.031454,28.3595199 230.125454,28.3335199 230.240454,28.2765199 C230.349454,28.2085199 230.495454,28.1255199 230.677454,28.0265199 C229.828454,26.8335199 228.771454,25.9845199 227.510454,25.4845199 C226.245454,24.9745199 225.057454,24.8695199 223.948454,25.1715199 C222.932454,25.4795199 222.182454,26.0005199 221.698454,26.7345199 C221.208454,27.4745199 220.828454,28.3495199 220.552454,29.3595199 C222.203454,29.1825199 223.802454,29.0155199 225.344454,28.8595199 C226.896454,28.7085199 228.432454,28.5415199 229.948454,28.3595199 Z" id="Shape"></path>
            <path d="M50.1472539,81.6515199 C50.7722539,85.3335199 50.4389539,88.7655199 49.1472539,91.9425199 C47.8556539,95.1095199 45.7931539,97.7865199 42.9597539,99.9635199 C40.1264539,102.13052 36.7097539,103.54752 32.7097539,104.21352 C31.8191539,104.39552 30.8400539,104.47952 29.7722539,104.46352 C28.7150539,104.43752 27.6525539,104.40152 26.5847539,104.35952 C26.0535539,104.30752 25.5118539,104.27052 24.9597539,104.25552 C24.4025539,104.22952 23.8556539,104.21352 23.3139539,104.21352 L22.5847539,104.21352 L22.6681539,105.94252 C22.7097539,106.75052 22.7514539,107.70852 22.7931539,108.81752 C22.8347539,109.93252 22.8556539,110.83852 22.8556539,111.54752 L22.8556539,112.13052 C22.8139539,112.89552 22.7566539,113.65152 22.6889539,114.40152 C22.6160539,115.15152 22.4493539,115.83852 22.1889539,116.46352 C21.6577539,117.79752 20.9858539,118.72452 20.1681539,119.23452 C19.3452539,119.73452 18.6056539,120.03652 17.9389539,120.13052 C17.0483539,120.25552 16.2202539,120.18752 15.4597539,119.92252 C14.7097539,119.66152 14.1577539,119.32852 13.8139539,118.92252 L13.6056539,118.79752 C12.8972539,118.35452 12.4702539,117.72452 12.3347539,116.90152 C12.2097539,116.08352 12.1681539,115.14052 12.2097539,114.06752 C12.2514539,113.40152 12.2931539,112.73452 12.3347539,112.06752 C12.3868539,111.40152 12.4389539,110.71352 12.4806539,110.00552 C12.5639539,108.72952 12.6368539,107.41652 12.7097539,106.06752 C12.7775539,104.70852 12.8139539,103.33852 12.8139539,101.96352 C12.8139539,99.6045199 12.7097539,97.2295199 12.5014539,94.8385199 C12.3035539,92.4375199 12.0952539,90.0625199 11.8764539,87.7135199 C11.6525539,85.5365199 11.4493539,83.3385199 11.2722539,81.1305199 C11.0900539,78.9115199 10.9806539,76.6875199 10.9389539,74.4635199 C10.9389539,73.8805199 10.9441539,73.3175199 10.9597539,72.7765199 C10.9858539,72.2245199 11.0483539,71.6725199 11.1472539,71.1305199 C11.4910539,69.3545199 12.4233539,68.2245199 13.9389539,67.7345199 C14.3400539,67.6515199 14.7410539,67.6095199 15.1472539,67.6095199 C16.2410539,67.6095199 17.2566539,68.0575199 18.1889539,68.9425199 C18.3243539,69.0265199 18.4858539,69.2295199 18.6681539,69.5475199 C18.7931539,69.7135199 18.9025539,69.8695199 19.0014539,70.0055199 L19.4597539,70.6095199 L20.0014539,70.2135199 C23.0952539,68.0365199 26.6472539,66.7655199 30.6472539,66.4015199 C34.1056539,66.1405199 37.1941539,66.5835199 39.9181539,67.7345199 C42.6525539,68.8905199 44.9077539,70.6455199 46.6889539,73.0055199 C48.4650539,75.3545199 49.6160539,78.2345199 50.1472539,81.6515199 Z M35.4389539,89.9015199 C38.1889539,87.2915199 38.9858539,84.3905199 37.8347539,81.1925199 C37.3035539,79.7655199 36.4389539,78.7865199 35.2306539,78.2555199 C34.2566539,77.8545199 33.1056539,77.7445199 31.7722539,77.9225199 C30.4389539,78.1045199 29.1785539,78.5205199 28.0014539,79.1725199 C26.8347539,79.8125199 25.9650539,80.6195199 25.3972539,81.5885199 C23.4389539,84.7445199 22.4597539,88.5365199 22.4597539,92.9635199 L22.4597539,93.6305199 L23.1264539,93.6925199 C23.6525539,93.6925199 24.1368539,93.6925199 24.5847539,93.6925199 C29.1941539,93.6925199 32.8139539,92.4325199 35.4389539,89.9015199 Z" id="Shape"></path>
            <path d="M76.4340539,88.9015199 C78.4340539,89.2245199 80.1631539,89.9535199 81.6215539,91.0885199 C83.0798539,92.2135199 84.1631539,93.6205199 84.8715539,95.2975199 C85.5902539,96.9795199 85.7934539,98.8175199 85.4756539,100.81752 C85.1684539,103.22452 84.5381539,105.45852 83.5798539,107.52652 C82.6319539,109.58352 81.2934539,111.45352 79.5590539,113.13052 C76.7256539,115.88052 73.2881539,117.23452 69.2465539,117.19252 C67.8715539,116.89052 66.4809539,116.62052 65.0798539,116.38052 C63.6736539,116.13052 62.3142539,115.78652 60.9965539,115.33852 C58.3715539,114.41152 56.4600539,112.92252 55.2673539,110.88052 C54.0694539,108.83852 53.6684539,106.44252 54.0590539,103.69252 C54.5434539,100.44252 55.6423539,97.6095199 57.3506539,95.1925199 C59.0590539,92.7765199 61.3142539,90.7295199 64.1215539,89.0475199 C66.5069539,87.6205199 69.0798539,87.2865199 71.8298539,88.0475199 C72.5902539,88.2715199 73.3611539,88.4535199 74.1423539,88.5885199 C74.9184539,88.7135199 75.6840539,88.8175199 76.4340539,88.9015199 Z M74.4965539,101.75552 C75.0381539,100.16152 74.6423539,98.8965199 73.3090539,97.9635199 C72.0590539,97.0785199 71.1006539,96.5155199 70.4340539,96.2765199 C69.7673539,96.0265199 69.1684539,96.1405199 68.6423539,96.6095199 C68.1111539,97.0675199 67.4236539,97.9165199 66.5798539,99.1515199 C66.3142539,99.5575199 66.0902539,99.8905199 65.9131539,100.15152 C64.6215539,102.41652 64.2152539,104.00552 64.7048539,104.92252 C65.2048539,105.82852 66.7361539,106.34952 69.3090539,106.48452 C70.6423539,106.52652 71.6684539,106.20852 72.3923539,105.52652 C73.1267539,104.83352 73.8298539,103.57852 74.4965539,101.75552 Z" id="Shape"></path>
            <path d="M139.059454,105.42252 C139.143454,106.31252 139.190454,107.21352 139.205454,108.13052 C139.231454,109.03652 139.205454,109.93252 139.122454,110.81752 C138.940454,112.23452 138.460454,113.42252 137.684454,114.38052 C136.919454,115.32852 135.981454,115.89052 134.872454,116.06752 C133.440454,116.33352 132.190454,116.18252 131.122454,115.60952 C130.065454,115.02652 129.294454,114.16152 128.809454,113.00552 C128.226454,111.54752 127.778454,110.02152 127.476454,108.42252 C127.169454,106.81252 126.856454,105.20852 126.539454,103.60952 C126.356454,102.90152 126.252454,102.17252 126.226454,101.42252 C126.210454,100.67252 126.164454,99.9425199 126.080454,99.2345199 C125.940454,99.1825199 125.737454,99.1305199 125.476454,99.0885199 C124.502454,100.38052 123.664454,101.72952 122.955454,103.13052 C122.247454,104.52152 121.820454,106.06252 121.684454,107.75552 C121.643454,108.36952 121.622454,109.00052 121.622454,109.65152 C121.622454,110.29152 121.570454,110.92252 121.476454,111.54752 C121.252454,113.22952 120.606454,114.56252 119.539454,115.54752 C118.481454,116.52152 117.226454,116.97952 115.768454,116.92252 C114.294454,116.88052 113.044454,116.31752 112.018454,115.23452 C111.002454,114.15152 110.476454,112.74452 110.434454,111.00552 C110.434454,109.77152 110.487454,108.53652 110.601454,107.29752 C110.710454,106.04752 110.747454,104.79752 110.705454,103.54752 C110.705454,102.21352 110.653454,100.91152 110.559454,99.6305199 C110.476454,98.3385199 110.414454,97.0475199 110.372454,95.7555199 C110.190454,95.7135199 110.023454,95.6665199 109.872454,95.6095199 C109.716454,95.5415199 109.549454,95.4795199 109.372454,95.4225199 C108.841454,96.0885199 108.268454,96.7505199 107.643454,97.4015199 C107.018454,98.0415199 106.549454,98.7345199 106.247454,99.4845199 C105.481454,101.18252 104.789454,102.88052 104.164454,104.58852 C103.549454,106.29752 102.934454,107.99452 102.309454,109.67252 C102.127454,110.16152 101.966454,110.66152 101.830454,111.17252 C101.705454,111.68752 101.528454,112.18752 101.309454,112.67252 C100.153454,115.42252 98.2264539,116.72952 95.5182539,116.58852 C94.3203539,116.54752 93.2473539,116.15152 92.2890539,115.40152 C91.3411539,114.65152 90.6692539,113.63052 90.2682539,112.33852 C90.0859539,111.85452 89.9244539,111.34952 89.7890539,110.81752 C89.6640539,110.27652 89.6223539,109.76552 89.6640539,109.27652 C90.4244539,103.06752 91.2734539,96.7915199 92.2057539,90.4425199 C92.2473539,89.9015199 92.3776539,89.3695199 92.6015539,88.8385199 C92.8203539,88.3125199 93.1328539,87.8905199 93.5390539,87.5675199 C94.0234539,87.1825199 94.6067539,86.7975199 95.2890539,86.4225199 C95.9817539,86.0365199 96.5911539,85.8905199 97.1223539,85.9845199 C97.7057539,86.0675199 98.2574539,86.3905199 98.7894539,86.9425199 C99.3154539,87.5005199 99.7574539,88.0415199 100.122454,88.5675199 C100.424454,89.0155199 100.612454,89.5265199 100.684454,90.1095199 C100.752454,90.6825199 100.851454,91.2555199 100.976454,91.8385199 C103.335454,90.2035199 105.278454,88.9745199 106.809454,88.1515199 C108.335454,87.3175199 109.664454,86.9165199 110.789454,86.9425199 C111.924454,86.9745199 113.070454,87.4425199 114.226454,88.3595199 C115.377454,89.2655199 116.731454,90.5995199 118.289454,92.3595199 C118.591454,91.9745199 118.872454,91.5675199 119.122454,91.1515199 C119.372454,90.7245199 119.669454,90.3545199 120.018454,90.0475199 C121.653454,88.4535199 123.403454,87.4535199 125.268454,87.0475199 C127.143454,86.6465199 128.955454,86.8495199 130.705454,87.6515199 C132.455454,88.4425199 133.976454,89.8175199 135.268454,91.7765199 C136.643454,93.8175199 137.539454,96.0055199 137.955454,98.3385199 C138.382454,100.66152 138.752454,103.02152 139.059454,105.42252 Z" id="Path"></path>
            <path d="M193.561454,105.42252 C193.645454,106.31252 193.692454,107.21352 193.707454,108.13052 C193.733454,109.03652 193.707454,109.93252 193.624454,110.81752 C193.442454,112.23452 192.962454,113.42252 192.186454,114.38052 C191.421454,115.32852 190.483454,115.89052 189.374454,116.06752 C187.942454,116.33352 186.692454,116.18252 185.624454,115.60952 C184.567454,115.02652 183.796454,114.16152 183.311454,113.00552 C182.728454,111.54752 182.280454,110.02152 181.978454,108.42252 C181.671454,106.81252 181.358454,105.20852 181.041454,103.60952 C180.858454,102.90152 180.754454,102.17252 180.728454,101.42252 C180.712454,100.67252 180.666454,99.9425199 180.582454,99.2345199 C180.442454,99.1825199 180.238454,99.1305199 179.978454,99.0885199 C179.004454,100.38052 178.166454,101.72952 177.457454,103.13052 C176.749454,104.52152 176.322454,106.06252 176.186454,107.75552 C176.145454,108.36952 176.124454,109.00052 176.124454,109.65152 C176.124454,110.29152 176.072454,110.92252 175.978454,111.54752 C175.754454,113.22952 175.108454,114.56252 174.041454,115.54752 C172.983454,116.52152 171.728454,116.97952 170.270454,116.92252 C168.796454,116.88052 167.546454,116.31752 166.520454,115.23452 C165.504454,114.15152 164.978454,112.74452 164.936454,111.00552 C164.936454,109.77152 164.988454,108.53652 165.103454,107.29752 C165.212454,106.04752 165.249454,104.79752 165.207454,103.54752 C165.207454,102.21352 165.155454,100.91152 165.061454,99.6305199 C164.978454,98.3385199 164.916454,97.0475199 164.874454,95.7555199 C164.692454,95.7135199 164.525454,95.6665199 164.374454,95.6095199 C164.218454,95.5415199 164.051454,95.4795199 163.874454,95.4225199 C163.343454,96.0885199 162.770454,96.7505199 162.145454,97.4015199 C161.520454,98.0415199 161.051454,98.7345199 160.749454,99.4845199 C159.983454,101.18252 159.291454,102.88052 158.666454,104.58852 C158.051454,106.29752 157.436454,107.99452 156.811454,109.67252 C156.629454,110.16152 156.468454,110.66152 156.332454,111.17252 C156.207454,111.68752 156.030454,112.18752 155.811454,112.67252 C154.655454,115.42252 152.728454,116.72952 150.020454,116.58852 C148.822454,116.54752 147.749454,116.15152 146.791454,115.40152 C145.843454,114.65152 145.171454,113.63052 144.770454,112.33852 C144.587454,111.85452 144.426454,111.34952 144.291454,110.81752 C144.166454,110.27652 144.124454,109.76552 144.166454,109.27652 C144.926454,103.06752 145.775454,96.7915199 146.707454,90.4425199 C146.749454,89.9015199 146.879454,89.3695199 147.103454,88.8385199 C147.322454,88.3125199 147.634454,87.8905199 148.041454,87.5675199 C148.525454,87.1825199 149.108454,86.7975199 149.791454,86.4225199 C150.483454,86.0365199 151.093454,85.8905199 151.624454,85.9845199 C152.207454,86.0675199 152.759454,86.3905199 153.291454,86.9425199 C153.817454,87.5005199 154.259454,88.0415199 154.624454,88.5675199 C154.926454,89.0155199 155.113454,89.5265199 155.186454,90.1095199 C155.254454,90.6825199 155.353454,91.2555199 155.478454,91.8385199 C157.837454,90.2035199 159.780454,88.9745199 161.311454,88.1515199 C162.837454,87.3175199 164.166454,86.9165199 165.291454,86.9425199 C166.426454,86.9745199 167.572454,87.4425199 168.728454,88.3595199 C169.879454,89.2655199 171.233454,90.5995199 172.791454,92.3595199 C173.093454,91.9745199 173.374454,91.5675199 173.624454,91.1515199 C173.874454,90.7245199 174.171454,90.3545199 174.520454,90.0475199 C176.155454,88.4535199 177.905454,87.4535199 179.770454,87.0475199 C181.645454,86.6465199 183.457454,86.8495199 185.207454,87.6515199 C186.957454,88.4425199 188.478454,89.8175199 189.770454,91.7765199 C191.145454,93.8175199 192.041454,96.0055199 192.457454,98.3385199 C192.884454,100.66152 193.254454,103.02152 193.561454,105.42252 Z" id="Path"></path>
            <path d="M224.897454,87.9845199 C226.574454,89.7085199 227.548454,91.5835199 227.813454,93.6095199 C228.089454,95.6255199 227.694454,97.4845199 226.626454,99.1925199 C225.553454,100.90152 223.886454,102.15152 221.626454,102.94252 C219.803454,103.56752 217.907454,104.00552 215.938454,104.25552 C213.964454,104.49452 211.938454,104.81252 209.855454,105.21352 C210.480454,105.39552 211.074454,105.58852 211.647454,105.79652 C212.230454,105.99452 212.803454,106.13052 213.376454,106.21352 C214.527454,106.43752 215.694454,106.60452 216.876454,106.71352 C218.053454,106.82852 219.199454,107.06252 220.313454,107.42152 C221.907454,107.95352 222.876454,108.84952 223.209454,110.10952 C223.543454,111.37552 223.105454,112.60452 221.897454,113.79652 C221.282454,114.46352 220.506454,115.05752 219.563454,115.56752 C218.631454,116.08352 217.720454,116.38052 216.834454,116.46352 C212.761454,116.86952 209.324454,116.34952 206.522454,114.90152 C203.730454,113.45852 201.668454,111.41152 200.334454,108.75552 C199.001454,106.08852 198.464454,103.10952 198.730454,99.8175199 C198.907454,97.7765199 199.261454,95.8175199 199.793454,93.9425199 C200.334454,92.0575199 201.178454,90.2445199 202.334454,88.5055199 C203.793454,86.2445199 205.673454,84.6095199 207.980454,83.6095199 C210.298454,82.6095199 212.782454,82.3805199 215.438454,82.9215199 C219.214454,83.5885199 222.366454,85.2765199 224.897454,87.9845199 Z M219.043454,94.3595199 C219.126454,94.3595199 219.220454,94.3335199 219.334454,94.2765199 C219.444454,94.2085199 219.589454,94.1255199 219.772454,94.0265199 C218.923454,92.8335199 217.866454,91.9845199 216.605454,91.4845199 C215.339454,90.9745199 214.152454,90.8695199 213.043454,91.1715199 C212.027454,91.4795199 211.277454,92.0005199 210.793454,92.7345199 C210.303454,93.4745199 209.923454,94.3495199 209.647454,95.3595199 C211.298454,95.1825199 212.897454,95.0155199 214.438454,94.8595199 C215.991454,94.7085199 217.527454,94.5415199 219.043454,94.3595199 Z" id="Shape"></path>
        </g>
    </g>
</svg>